<mxfile host="app.diagrams.net" modified="2022-07-31T06:51:32.238Z" agent="5.0 (Macintosh; Intel Mac OS X 10_15_7) AppleWebKit/537.36 (KHTML, like Gecko) Chrome/103.0.0.0 Safari/537.36" etag="f2J8_kQsqQBpDYyJuCmz" version="20.2.0" type="github" pages="5">
  <diagram id="mMgREmlwJuieN_6XRh3l" name="第 1 页">
    <mxGraphModel dx="1048" dy="1788" grid="1" gridSize="10" guides="1" tooltips="1" connect="1" arrows="1" fold="1" page="1" pageScale="1" pageWidth="827" pageHeight="1169" math="0" shadow="0">
      <root>
        <mxCell id="0" />
        <mxCell id="1" parent="0" />
        <mxCell id="3OxtzUUmbiVd36FKbkzM-96" value="" style="rounded=0;whiteSpace=wrap;html=1;dashed=1;fontSize=16;" vertex="1" parent="1">
          <mxGeometry x="2240" y="-60" width="690" height="380" as="geometry" />
        </mxCell>
        <mxCell id="3OxtzUUmbiVd36FKbkzM-101" value="" style="rounded=0;whiteSpace=wrap;html=1;dashed=1;fontSize=16;" vertex="1" parent="1">
          <mxGeometry x="2430" y="-40" width="310" height="230" as="geometry" />
        </mxCell>
        <mxCell id="3OxtzUUmbiVd36FKbkzM-95" value="" style="rounded=0;whiteSpace=wrap;html=1;dashed=1;fontSize=16;" vertex="1" parent="1">
          <mxGeometry x="2200" y="575" width="550" height="130" as="geometry" />
        </mxCell>
        <mxCell id="3OxtzUUmbiVd36FKbkzM-92" style="edgeStyle=orthogonalEdgeStyle;rounded=0;orthogonalLoop=1;jettySize=auto;html=1;fontSize=16;" edge="1" parent="1" source="3OxtzUUmbiVd36FKbkzM-91">
          <mxGeometry relative="1" as="geometry">
            <mxPoint x="1930" y="320" as="targetPoint" />
          </mxGeometry>
        </mxCell>
        <mxCell id="3OxtzUUmbiVd36FKbkzM-91" value="" style="rounded=0;whiteSpace=wrap;html=1;dashed=1;fontSize=16;" vertex="1" parent="1">
          <mxGeometry x="1840" y="370" width="910" height="170" as="geometry" />
        </mxCell>
        <mxCell id="3OxtzUUmbiVd36FKbkzM-89" style="edgeStyle=orthogonalEdgeStyle;rounded=0;orthogonalLoop=1;jettySize=auto;html=1;entryX=1;entryY=0.183;entryDx=0;entryDy=0;entryPerimeter=0;fontSize=16;" edge="1" parent="1" source="3OxtzUUmbiVd36FKbkzM-87" target="3OxtzUUmbiVd36FKbkzM-74">
          <mxGeometry relative="1" as="geometry" />
        </mxCell>
        <mxCell id="3OxtzUUmbiVd36FKbkzM-97" style="edgeStyle=orthogonalEdgeStyle;rounded=0;orthogonalLoop=1;jettySize=auto;html=1;fontSize=16;" edge="1" parent="1" source="3OxtzUUmbiVd36FKbkzM-87" target="3OxtzUUmbiVd36FKbkzM-96">
          <mxGeometry relative="1" as="geometry" />
        </mxCell>
        <mxCell id="3OxtzUUmbiVd36FKbkzM-87" value="" style="rounded=0;whiteSpace=wrap;html=1;dashed=1;fontSize=16;" vertex="1" parent="1">
          <mxGeometry x="1854" y="-180" width="166" height="310" as="geometry" />
        </mxCell>
        <mxCell id="3OxtzUUmbiVd36FKbkzM-82" value="" style="rounded=0;whiteSpace=wrap;html=1;dashed=1;fontSize=16;" vertex="1" parent="1">
          <mxGeometry x="1620" y="240" width="180" height="100" as="geometry" />
        </mxCell>
        <mxCell id="3OxtzUUmbiVd36FKbkzM-74" value="" style="rounded=0;whiteSpace=wrap;html=1;fontSize=16;dashed=1;" vertex="1" parent="1">
          <mxGeometry x="30" y="5" width="1460" height="570" as="geometry" />
        </mxCell>
        <mxCell id="3OxtzUUmbiVd36FKbkzM-72" style="edgeStyle=orthogonalEdgeStyle;rounded=0;orthogonalLoop=1;jettySize=auto;html=1;fontSize=16;entryX=0.5;entryY=1;entryDx=0;entryDy=0;" edge="1" parent="1" source="3OxtzUUmbiVd36FKbkzM-56" target="3OxtzUUmbiVd36FKbkzM-17">
          <mxGeometry relative="1" as="geometry">
            <mxPoint x="970" y="440" as="targetPoint" />
          </mxGeometry>
        </mxCell>
        <mxCell id="3OxtzUUmbiVd36FKbkzM-73" value="4PL可以转换为备货模型" style="edgeLabel;html=1;align=center;verticalAlign=middle;resizable=0;points=[];fontSize=16;" vertex="1" connectable="0" parent="3OxtzUUmbiVd36FKbkzM-72">
          <mxGeometry x="-0.3926" relative="1" as="geometry">
            <mxPoint as="offset" />
          </mxGeometry>
        </mxCell>
        <mxCell id="3OxtzUUmbiVd36FKbkzM-56" value="" style="rounded=0;whiteSpace=wrap;html=1;fontSize=16;" vertex="1" parent="1">
          <mxGeometry x="600" y="370" width="295" height="150" as="geometry" />
        </mxCell>
        <mxCell id="3OxtzUUmbiVd36FKbkzM-53" style="edgeStyle=orthogonalEdgeStyle;rounded=0;orthogonalLoop=1;jettySize=auto;html=1;entryX=0;entryY=0.5;entryDx=0;entryDy=0;fontSize=16;" edge="1" parent="1" source="3OxtzUUmbiVd36FKbkzM-50" target="3OxtzUUmbiVd36FKbkzM-10">
          <mxGeometry relative="1" as="geometry" />
        </mxCell>
        <mxCell id="3OxtzUUmbiVd36FKbkzM-50" value="" style="rounded=0;whiteSpace=wrap;html=1;fontSize=16;" vertex="1" parent="1">
          <mxGeometry x="245" y="260" width="120" height="180" as="geometry" />
        </mxCell>
        <mxCell id="3OxtzUUmbiVd36FKbkzM-52" style="edgeStyle=orthogonalEdgeStyle;rounded=0;orthogonalLoop=1;jettySize=auto;html=1;entryX=0.008;entryY=0.467;entryDx=0;entryDy=0;entryPerimeter=0;fontSize=16;" edge="1" parent="1" source="3OxtzUUmbiVd36FKbkzM-49" target="3OxtzUUmbiVd36FKbkzM-50">
          <mxGeometry relative="1" as="geometry" />
        </mxCell>
        <mxCell id="3OxtzUUmbiVd36FKbkzM-49" value="" style="rounded=0;whiteSpace=wrap;html=1;fontSize=16;" vertex="1" parent="1">
          <mxGeometry x="45" y="280" width="120" height="130" as="geometry" />
        </mxCell>
        <mxCell id="3OxtzUUmbiVd36FKbkzM-1" value="&lt;font style=&quot;font-size: 16px;&quot;&gt;CPFR&lt;/font&gt;" style="rounded=0;whiteSpace=wrap;html=1;fillColor=#dae8fc;strokeColor=#6c8ebf;" vertex="1" parent="1">
          <mxGeometry x="180" y="70" width="90" height="40" as="geometry" />
        </mxCell>
        <mxCell id="3OxtzUUmbiVd36FKbkzM-2" value="&lt;span style=&quot;font-size: 16px;&quot;&gt;采销一体&lt;/span&gt;" style="rounded=0;whiteSpace=wrap;html=1;fillColor=#dae8fc;strokeColor=#6c8ebf;" vertex="1" parent="1">
          <mxGeometry x="180" y="120" width="90" height="40" as="geometry" />
        </mxCell>
        <mxCell id="3OxtzUUmbiVd36FKbkzM-3" value="&lt;span style=&quot;font-size: 16px;&quot;&gt;业财一体&lt;/span&gt;" style="rounded=0;whiteSpace=wrap;html=1;fillColor=#dae8fc;strokeColor=#6c8ebf;" vertex="1" parent="1">
          <mxGeometry x="180" y="170" width="90" height="40" as="geometry" />
        </mxCell>
        <mxCell id="3OxtzUUmbiVd36FKbkzM-4" value="&lt;span style=&quot;font-size: 16px;&quot;&gt;需求预测&lt;/span&gt;" style="rounded=0;whiteSpace=wrap;html=1;fillColor=#fff2cc;strokeColor=#d6b656;" vertex="1" parent="1">
          <mxGeometry x="60" y="300" width="90" height="40" as="geometry" />
        </mxCell>
        <mxCell id="3OxtzUUmbiVd36FKbkzM-5" value="&lt;span style=&quot;font-size: 16px;&quot;&gt;销量预测&lt;/span&gt;" style="rounded=0;whiteSpace=wrap;html=1;fillColor=#fff2cc;strokeColor=#d6b656;" vertex="1" parent="1">
          <mxGeometry x="60" y="350" width="90" height="40" as="geometry" />
        </mxCell>
        <mxCell id="3OxtzUUmbiVd36FKbkzM-6" value="&lt;span style=&quot;font-size: 16px;&quot;&gt;品类规划&lt;/span&gt;" style="rounded=0;whiteSpace=wrap;html=1;fillColor=#fff2cc;strokeColor=#d6b656;" vertex="1" parent="1">
          <mxGeometry x="260" y="270" width="90" height="40" as="geometry" />
        </mxCell>
        <mxCell id="3OxtzUUmbiVd36FKbkzM-8" value="&lt;span style=&quot;font-size: 16px;&quot;&gt;商品企划&lt;/span&gt;" style="rounded=0;whiteSpace=wrap;html=1;fillColor=#fff2cc;strokeColor=#d6b656;" vertex="1" parent="1">
          <mxGeometry x="260" y="330" width="90" height="40" as="geometry" />
        </mxCell>
        <mxCell id="3OxtzUUmbiVd36FKbkzM-9" value="&lt;span style=&quot;font-size: 16px;&quot;&gt;目标拆解&lt;/span&gt;" style="rounded=0;whiteSpace=wrap;html=1;fillColor=#fff2cc;strokeColor=#d6b656;" vertex="1" parent="1">
          <mxGeometry x="260" y="390" width="90" height="40" as="geometry" />
        </mxCell>
        <mxCell id="3OxtzUUmbiVd36FKbkzM-54" style="edgeStyle=orthogonalEdgeStyle;rounded=0;orthogonalLoop=1;jettySize=auto;html=1;entryX=0;entryY=0.5;entryDx=0;entryDy=0;fontSize=16;" edge="1" parent="1" source="3OxtzUUmbiVd36FKbkzM-10" target="3OxtzUUmbiVd36FKbkzM-11">
          <mxGeometry relative="1" as="geometry" />
        </mxCell>
        <mxCell id="3OxtzUUmbiVd36FKbkzM-55" value="(类)自营" style="edgeLabel;html=1;align=center;verticalAlign=middle;resizable=0;points=[];fontSize=16;" vertex="1" connectable="0" parent="3OxtzUUmbiVd36FKbkzM-54">
          <mxGeometry x="-0.1" relative="1" as="geometry">
            <mxPoint as="offset" />
          </mxGeometry>
        </mxCell>
        <mxCell id="3OxtzUUmbiVd36FKbkzM-57" style="edgeStyle=orthogonalEdgeStyle;rounded=0;orthogonalLoop=1;jettySize=auto;html=1;entryX=0;entryY=0.5;entryDx=0;entryDy=0;fontSize=16;" edge="1" parent="1" source="3OxtzUUmbiVd36FKbkzM-10" target="3OxtzUUmbiVd36FKbkzM-56">
          <mxGeometry relative="1" as="geometry">
            <Array as="points">
              <mxPoint x="485" y="445" />
            </Array>
          </mxGeometry>
        </mxCell>
        <mxCell id="3OxtzUUmbiVd36FKbkzM-58" value="普通平台模式" style="edgeLabel;html=1;align=center;verticalAlign=middle;resizable=0;points=[];fontSize=16;" vertex="1" connectable="0" parent="3OxtzUUmbiVd36FKbkzM-57">
          <mxGeometry x="-0.496" y="1" relative="1" as="geometry">
            <mxPoint as="offset" />
          </mxGeometry>
        </mxCell>
        <mxCell id="3OxtzUUmbiVd36FKbkzM-10" value="&lt;span style=&quot;font-size: 16px;&quot;&gt;销量计划&lt;/span&gt;" style="rounded=0;whiteSpace=wrap;html=1;fillColor=#fff2cc;strokeColor=#d6b656;" vertex="1" parent="1">
          <mxGeometry x="440" y="270" width="90" height="40" as="geometry" />
        </mxCell>
        <mxCell id="3OxtzUUmbiVd36FKbkzM-59" style="edgeStyle=orthogonalEdgeStyle;rounded=0;orthogonalLoop=1;jettySize=auto;html=1;entryX=0.5;entryY=1;entryDx=0;entryDy=0;fontSize=16;" edge="1" parent="1" source="3OxtzUUmbiVd36FKbkzM-11" target="3OxtzUUmbiVd36FKbkzM-12">
          <mxGeometry relative="1" as="geometry" />
        </mxCell>
        <mxCell id="3OxtzUUmbiVd36FKbkzM-63" style="edgeStyle=orthogonalEdgeStyle;rounded=0;orthogonalLoop=1;jettySize=auto;html=1;entryX=0;entryY=0.5;entryDx=0;entryDy=0;fontSize=16;" edge="1" parent="1" source="3OxtzUUmbiVd36FKbkzM-11" target="3OxtzUUmbiVd36FKbkzM-15">
          <mxGeometry relative="1" as="geometry" />
        </mxCell>
        <mxCell id="3OxtzUUmbiVd36FKbkzM-11" value="&lt;span style=&quot;font-size: 16px;&quot;&gt;采购计划&lt;/span&gt;" style="rounded=0;whiteSpace=wrap;html=1;fillColor=#fff2cc;strokeColor=#d6b656;" vertex="1" parent="1">
          <mxGeometry x="610" y="270" width="90" height="40" as="geometry" />
        </mxCell>
        <mxCell id="3OxtzUUmbiVd36FKbkzM-60" style="edgeStyle=orthogonalEdgeStyle;rounded=0;orthogonalLoop=1;jettySize=auto;html=1;entryX=0.5;entryY=1;entryDx=0;entryDy=0;fontSize=16;" edge="1" parent="1" source="3OxtzUUmbiVd36FKbkzM-12" target="3OxtzUUmbiVd36FKbkzM-13">
          <mxGeometry relative="1" as="geometry" />
        </mxCell>
        <mxCell id="3OxtzUUmbiVd36FKbkzM-12" value="&lt;span style=&quot;font-size: 16px;&quot;&gt;库存计划&lt;/span&gt;" style="rounded=0;whiteSpace=wrap;html=1;fillColor=#fff2cc;strokeColor=#d6b656;" vertex="1" parent="1">
          <mxGeometry x="610" y="180" width="90" height="40" as="geometry" />
        </mxCell>
        <mxCell id="3OxtzUUmbiVd36FKbkzM-61" style="edgeStyle=orthogonalEdgeStyle;rounded=0;orthogonalLoop=1;jettySize=auto;html=1;entryX=0.5;entryY=1;entryDx=0;entryDy=0;fontSize=16;" edge="1" parent="1" source="3OxtzUUmbiVd36FKbkzM-13" target="3OxtzUUmbiVd36FKbkzM-14">
          <mxGeometry relative="1" as="geometry" />
        </mxCell>
        <mxCell id="3OxtzUUmbiVd36FKbkzM-13" value="&lt;span style=&quot;font-size: 16px;&quot;&gt;备货计划&lt;/span&gt;" style="rounded=0;whiteSpace=wrap;html=1;fillColor=#fff2cc;strokeColor=#d6b656;" vertex="1" parent="1">
          <mxGeometry x="610" y="90" width="90" height="40" as="geometry" />
        </mxCell>
        <mxCell id="3OxtzUUmbiVd36FKbkzM-62" value="物流配送如：头程" style="edgeStyle=orthogonalEdgeStyle;rounded=0;orthogonalLoop=1;jettySize=auto;html=1;entryX=0;entryY=0.5;entryDx=0;entryDy=0;fontSize=16;" edge="1" parent="1" source="3OxtzUUmbiVd36FKbkzM-14" target="3OxtzUUmbiVd36FKbkzM-13">
          <mxGeometry relative="1" as="geometry">
            <Array as="points">
              <mxPoint x="510" y="30" />
              <mxPoint x="510" y="110" />
            </Array>
          </mxGeometry>
        </mxCell>
        <mxCell id="3OxtzUUmbiVd36FKbkzM-14" value="&lt;span style=&quot;font-size: 16px;&quot;&gt;生产计划&lt;/span&gt;" style="rounded=0;whiteSpace=wrap;html=1;fillColor=#fff2cc;strokeColor=#d6b656;" vertex="1" parent="1">
          <mxGeometry x="610" y="10" width="90" height="40" as="geometry" />
        </mxCell>
        <mxCell id="3OxtzUUmbiVd36FKbkzM-64" style="edgeStyle=orthogonalEdgeStyle;rounded=0;orthogonalLoop=1;jettySize=auto;html=1;entryX=0;entryY=0.5;entryDx=0;entryDy=0;fontSize=16;" edge="1" parent="1" source="3OxtzUUmbiVd36FKbkzM-15" target="3OxtzUUmbiVd36FKbkzM-16">
          <mxGeometry relative="1" as="geometry" />
        </mxCell>
        <mxCell id="3OxtzUUmbiVd36FKbkzM-15" value="&lt;span style=&quot;font-size: 16px;&quot;&gt;采购单&lt;/span&gt;" style="rounded=0;whiteSpace=wrap;html=1;fillColor=#f0a30a;strokeColor=#BD7000;fontColor=#000000;" vertex="1" parent="1">
          <mxGeometry x="790" y="270" width="90" height="40" as="geometry" />
        </mxCell>
        <mxCell id="3OxtzUUmbiVd36FKbkzM-65" style="edgeStyle=orthogonalEdgeStyle;rounded=0;orthogonalLoop=1;jettySize=auto;html=1;fontSize=16;entryX=0;entryY=0.5;entryDx=0;entryDy=0;" edge="1" parent="1" source="3OxtzUUmbiVd36FKbkzM-16" target="3OxtzUUmbiVd36FKbkzM-17">
          <mxGeometry relative="1" as="geometry">
            <mxPoint x="1100" y="290" as="targetPoint" />
          </mxGeometry>
        </mxCell>
        <mxCell id="3OxtzUUmbiVd36FKbkzM-16" value="&lt;span style=&quot;font-size: 16px;&quot;&gt;交货单&lt;/span&gt;" style="rounded=0;whiteSpace=wrap;html=1;fillColor=#f0a30a;strokeColor=#BD7000;fontColor=#000000;" vertex="1" parent="1">
          <mxGeometry x="960" y="270" width="90" height="40" as="geometry" />
        </mxCell>
        <mxCell id="3OxtzUUmbiVd36FKbkzM-79" style="edgeStyle=orthogonalEdgeStyle;rounded=0;orthogonalLoop=1;jettySize=auto;html=1;fontSize=16;entryX=0;entryY=0.5;entryDx=0;entryDy=0;" edge="1" parent="1" source="3OxtzUUmbiVd36FKbkzM-17" target="3OxtzUUmbiVd36FKbkzM-82">
          <mxGeometry relative="1" as="geometry">
            <mxPoint x="1590" y="290" as="targetPoint" />
          </mxGeometry>
        </mxCell>
        <mxCell id="3OxtzUUmbiVd36FKbkzM-17" value="&lt;span style=&quot;font-size: 16px;&quot;&gt;入库单&lt;/span&gt;" style="rounded=0;whiteSpace=wrap;html=1;fillColor=#f0a30a;strokeColor=#BD7000;fontColor=#000000;" vertex="1" parent="1">
          <mxGeometry x="1120" y="270" width="90" height="40" as="geometry" />
        </mxCell>
        <mxCell id="3OxtzUUmbiVd36FKbkzM-71" style="edgeStyle=orthogonalEdgeStyle;rounded=0;orthogonalLoop=1;jettySize=auto;html=1;entryX=0.5;entryY=0;entryDx=0;entryDy=0;fontSize=16;" edge="1" parent="1" source="3OxtzUUmbiVd36FKbkzM-18" target="3OxtzUUmbiVd36FKbkzM-17">
          <mxGeometry relative="1" as="geometry" />
        </mxCell>
        <mxCell id="3OxtzUUmbiVd36FKbkzM-18" value="&lt;span style=&quot;font-size: 16px;&quot;&gt;退仓单&lt;/span&gt;" style="rounded=0;whiteSpace=wrap;html=1;fillColor=#f0a30a;strokeColor=#BD7000;fontColor=#000000;" vertex="1" parent="1">
          <mxGeometry x="1120" y="180" width="90" height="40" as="geometry" />
        </mxCell>
        <mxCell id="3OxtzUUmbiVd36FKbkzM-70" style="edgeStyle=orthogonalEdgeStyle;rounded=0;orthogonalLoop=1;jettySize=auto;html=1;entryX=0.5;entryY=0;entryDx=0;entryDy=0;fontSize=16;" edge="1" parent="1" source="3OxtzUUmbiVd36FKbkzM-19" target="3OxtzUUmbiVd36FKbkzM-18">
          <mxGeometry relative="1" as="geometry" />
        </mxCell>
        <mxCell id="3OxtzUUmbiVd36FKbkzM-19" value="&lt;span style=&quot;font-size: 16px;&quot;&gt;退仓计划&lt;/span&gt;" style="rounded=0;whiteSpace=wrap;html=1;fillColor=#fff2cc;strokeColor=#d6b656;" vertex="1" parent="1">
          <mxGeometry x="1120" y="90" width="90" height="40" as="geometry" />
        </mxCell>
        <mxCell id="3OxtzUUmbiVd36FKbkzM-20" value="&lt;span style=&quot;font-size: 16px;&quot;&gt;盘货计划&lt;/span&gt;" style="rounded=0;whiteSpace=wrap;html=1;fillColor=#fff2cc;strokeColor=#d6b656;" vertex="1" parent="1">
          <mxGeometry x="610" y="390" width="90" height="40" as="geometry" />
        </mxCell>
        <mxCell id="3OxtzUUmbiVd36FKbkzM-21" value="&lt;span style=&quot;font-size: 16px;&quot;&gt;期货计划&lt;/span&gt;" style="rounded=0;whiteSpace=wrap;html=1;fillColor=#fff2cc;strokeColor=#d6b656;" vertex="1" parent="1">
          <mxGeometry x="610" y="460" width="90" height="40" as="geometry" />
        </mxCell>
        <mxCell id="3OxtzUUmbiVd36FKbkzM-22" value="&lt;span style=&quot;font-size: 16px;&quot;&gt;缺货雷达&lt;/span&gt;" style="rounded=0;whiteSpace=wrap;html=1;fillColor=#dae8fc;strokeColor=#6c8ebf;" vertex="1" parent="1">
          <mxGeometry x="790" y="390" width="90" height="40" as="geometry" />
        </mxCell>
        <mxCell id="3OxtzUUmbiVd36FKbkzM-23" value="&lt;span style=&quot;font-size: 16px;&quot;&gt;到货跟踪&lt;/span&gt;" style="rounded=0;whiteSpace=wrap;html=1;fillColor=#dae8fc;strokeColor=#6c8ebf;" vertex="1" parent="1">
          <mxGeometry x="790" y="460" width="90" height="40" as="geometry" />
        </mxCell>
        <mxCell id="3OxtzUUmbiVd36FKbkzM-24" value="&lt;span style=&quot;font-size: 16px;&quot;&gt;仓内各种作业&lt;/span&gt;" style="rounded=0;whiteSpace=wrap;html=1;fillColor=#fff2cc;strokeColor=#d6b656;" vertex="1" parent="1">
          <mxGeometry x="1645" y="280" width="130" height="40" as="geometry" />
        </mxCell>
        <mxCell id="3OxtzUUmbiVd36FKbkzM-77" style="edgeStyle=orthogonalEdgeStyle;rounded=0;orthogonalLoop=1;jettySize=auto;html=1;fontSize=16;" edge="1" parent="1" source="3OxtzUUmbiVd36FKbkzM-25">
          <mxGeometry relative="1" as="geometry">
            <mxPoint x="1710" y="340" as="targetPoint" />
          </mxGeometry>
        </mxCell>
        <mxCell id="3OxtzUUmbiVd36FKbkzM-25" value="&lt;span style=&quot;font-size: 16px;&quot;&gt;调拨单&lt;/span&gt;" style="rounded=0;whiteSpace=wrap;html=1;fillColor=#f0a30a;strokeColor=#BD7000;fontColor=#000000;" vertex="1" parent="1">
          <mxGeometry x="1340" y="395" width="90" height="40" as="geometry" />
        </mxCell>
        <mxCell id="3OxtzUUmbiVd36FKbkzM-76" value="" style="edgeStyle=orthogonalEdgeStyle;rounded=0;orthogonalLoop=1;jettySize=auto;html=1;fontSize=16;" edge="1" parent="1" source="3OxtzUUmbiVd36FKbkzM-26" target="3OxtzUUmbiVd36FKbkzM-25">
          <mxGeometry relative="1" as="geometry" />
        </mxCell>
        <mxCell id="3OxtzUUmbiVd36FKbkzM-78" value="调拨网络" style="edgeLabel;html=1;align=center;verticalAlign=middle;resizable=0;points=[];fontSize=16;" vertex="1" connectable="0" parent="3OxtzUUmbiVd36FKbkzM-76">
          <mxGeometry x="-0.0944" y="1" relative="1" as="geometry">
            <mxPoint as="offset" />
          </mxGeometry>
        </mxCell>
        <mxCell id="3OxtzUUmbiVd36FKbkzM-26" value="&lt;span style=&quot;font-size: 16px;&quot;&gt;调拨计划&lt;/span&gt;" style="rounded=0;whiteSpace=wrap;html=1;fillColor=#fff2cc;strokeColor=#d6b656;" vertex="1" parent="1">
          <mxGeometry x="1340" y="480" width="90" height="40" as="geometry" />
        </mxCell>
        <mxCell id="3OxtzUUmbiVd36FKbkzM-81" style="edgeStyle=orthogonalEdgeStyle;rounded=0;orthogonalLoop=1;jettySize=auto;html=1;fontSize=16;" edge="1" parent="1" source="3OxtzUUmbiVd36FKbkzM-27">
          <mxGeometry relative="1" as="geometry">
            <mxPoint x="1737" y="240" as="targetPoint" />
          </mxGeometry>
        </mxCell>
        <mxCell id="3OxtzUUmbiVd36FKbkzM-27" value="&lt;span style=&quot;font-size: 16px;&quot;&gt;报废单&lt;/span&gt;" style="rounded=0;whiteSpace=wrap;html=1;fillColor=#f0a30a;strokeColor=#BD7000;fontColor=#000000;" vertex="1" parent="1">
          <mxGeometry x="1884" y="185" width="90" height="40" as="geometry" />
        </mxCell>
        <mxCell id="3OxtzUUmbiVd36FKbkzM-80" style="edgeStyle=orthogonalEdgeStyle;rounded=0;orthogonalLoop=1;jettySize=auto;html=1;entryX=1;entryY=0.5;entryDx=0;entryDy=0;fontSize=16;" edge="1" parent="1" source="3OxtzUUmbiVd36FKbkzM-28" target="3OxtzUUmbiVd36FKbkzM-27">
          <mxGeometry relative="1" as="geometry" />
        </mxCell>
        <mxCell id="3OxtzUUmbiVd36FKbkzM-28" value="&lt;span style=&quot;font-size: 16px;&quot;&gt;报废计划&lt;/span&gt;" style="rounded=0;whiteSpace=wrap;html=1;fillColor=#fff2cc;strokeColor=#d6b656;" vertex="1" parent="1">
          <mxGeometry x="2080" y="185" width="90" height="40" as="geometry" />
        </mxCell>
        <mxCell id="3OxtzUUmbiVd36FKbkzM-93" style="rounded=0;orthogonalLoop=1;jettySize=auto;html=1;entryX=1;entryY=0.5;entryDx=0;entryDy=0;fontSize=16;" edge="1" parent="1" source="3OxtzUUmbiVd36FKbkzM-29" target="3OxtzUUmbiVd36FKbkzM-82">
          <mxGeometry relative="1" as="geometry" />
        </mxCell>
        <mxCell id="3OxtzUUmbiVd36FKbkzM-29" value="&lt;span style=&quot;font-size: 16px;&quot;&gt;出库单&lt;/span&gt;" style="rounded=0;whiteSpace=wrap;html=1;fillColor=#f0a30a;strokeColor=#BD7000;fontColor=#000000;" vertex="1" parent="1">
          <mxGeometry x="1884" y="275" width="90" height="40" as="geometry" />
        </mxCell>
        <mxCell id="3OxtzUUmbiVd36FKbkzM-30" value="&lt;span style=&quot;font-size: 16px;&quot;&gt;履行单&lt;/span&gt;" style="rounded=0;whiteSpace=wrap;html=1;fillColor=#f0a30a;strokeColor=#BD7000;fontColor=#000000;" vertex="1" parent="1">
          <mxGeometry x="1884" y="395" width="90" height="40" as="geometry" />
        </mxCell>
        <mxCell id="3OxtzUUmbiVd36FKbkzM-31" value="&lt;span style=&quot;font-size: 16px;&quot;&gt;履约单&lt;/span&gt;" style="rounded=0;whiteSpace=wrap;html=1;fillColor=#f0a30a;strokeColor=#BD7000;fontColor=#000000;" vertex="1" parent="1">
          <mxGeometry x="1884" y="465" width="90" height="40" as="geometry" />
        </mxCell>
        <mxCell id="3OxtzUUmbiVd36FKbkzM-32" value="&lt;span style=&quot;font-size: 16px;&quot;&gt;履约计划&lt;/span&gt;" style="rounded=0;whiteSpace=wrap;html=1;fillColor=#fff2cc;strokeColor=#d6b656;" vertex="1" parent="1">
          <mxGeometry x="2080" y="395" width="90" height="40" as="geometry" />
        </mxCell>
        <mxCell id="3OxtzUUmbiVd36FKbkzM-33" value="&lt;span style=&quot;font-size: 16px;&quot;&gt;配送计划&lt;/span&gt;" style="rounded=0;whiteSpace=wrap;html=1;fillColor=#fff2cc;strokeColor=#d6b656;" vertex="1" parent="1">
          <mxGeometry x="2080" y="465" width="90" height="40" as="geometry" />
        </mxCell>
        <mxCell id="3OxtzUUmbiVd36FKbkzM-34" value="&lt;span style=&quot;font-size: 16px;&quot;&gt;物流接单&lt;/span&gt;" style="rounded=0;whiteSpace=wrap;html=1;fillColor=#f0a30a;strokeColor=#BD7000;fontColor=#000000;" vertex="1" parent="1">
          <mxGeometry x="2270" y="425" width="90" height="40" as="geometry" />
        </mxCell>
        <mxCell id="3OxtzUUmbiVd36FKbkzM-35" value="&lt;span style=&quot;font-size: 16px;&quot;&gt;交易订单&lt;/span&gt;" style="rounded=0;whiteSpace=wrap;html=1;fillColor=#f0a30a;strokeColor=#BD7000;fontColor=#000000;" vertex="1" parent="1">
          <mxGeometry x="2270" y="620" width="90" height="40" as="geometry" />
        </mxCell>
        <mxCell id="3OxtzUUmbiVd36FKbkzM-36" value="&lt;span style=&quot;font-size: 16px;&quot;&gt;2C销售&lt;/span&gt;" style="rounded=0;whiteSpace=wrap;html=1;fillColor=#008a00;strokeColor=#005700;fontColor=#ffffff;" vertex="1" parent="1">
          <mxGeometry x="2450" y="620" width="90" height="40" as="geometry" />
        </mxCell>
        <mxCell id="3OxtzUUmbiVd36FKbkzM-37" value="&lt;span style=&quot;font-size: 16px;&quot;&gt;流量计划&lt;/span&gt;" style="rounded=0;whiteSpace=wrap;html=1;fillColor=#fff2cc;strokeColor=#d6b656;" vertex="1" parent="1">
          <mxGeometry x="2620" y="620" width="90" height="40" as="geometry" />
        </mxCell>
        <mxCell id="3OxtzUUmbiVd36FKbkzM-109" value="2B履约" style="edgeStyle=orthogonalEdgeStyle;rounded=0;orthogonalLoop=1;jettySize=auto;html=1;entryX=0.722;entryY=-0.004;entryDx=0;entryDy=0;entryPerimeter=0;fontSize=16;" edge="1" parent="1" source="3OxtzUUmbiVd36FKbkzM-38" target="3OxtzUUmbiVd36FKbkzM-91">
          <mxGeometry relative="1" as="geometry">
            <Array as="points">
              <mxPoint x="2315" y="330" />
              <mxPoint x="2497" y="330" />
            </Array>
          </mxGeometry>
        </mxCell>
        <mxCell id="3OxtzUUmbiVd36FKbkzM-38" value="&lt;span style=&quot;font-size: 16px;&quot;&gt;销售订单&lt;/span&gt;" style="rounded=0;whiteSpace=wrap;html=1;fillColor=#f0a30a;strokeColor=#BD7000;fontColor=#000000;" vertex="1" parent="1">
          <mxGeometry x="2270" y="235" width="90" height="40" as="geometry" />
        </mxCell>
        <mxCell id="3OxtzUUmbiVd36FKbkzM-98" style="edgeStyle=orthogonalEdgeStyle;rounded=0;orthogonalLoop=1;jettySize=auto;html=1;entryX=1;entryY=0.5;entryDx=0;entryDy=0;fontSize=16;" edge="1" parent="1" source="3OxtzUUmbiVd36FKbkzM-39" target="3OxtzUUmbiVd36FKbkzM-38">
          <mxGeometry relative="1" as="geometry" />
        </mxCell>
        <mxCell id="3OxtzUUmbiVd36FKbkzM-39" value="&lt;span style=&quot;font-size: 16px;&quot;&gt;货品分配&lt;/span&gt;" style="rounded=0;whiteSpace=wrap;html=1;fillColor=#dae8fc;strokeColor=#6c8ebf;" vertex="1" parent="1">
          <mxGeometry x="2450" y="235" width="90" height="40" as="geometry" />
        </mxCell>
        <mxCell id="3OxtzUUmbiVd36FKbkzM-99" style="edgeStyle=orthogonalEdgeStyle;rounded=0;orthogonalLoop=1;jettySize=auto;html=1;entryX=1;entryY=0.5;entryDx=0;entryDy=0;fontSize=16;" edge="1" parent="1" source="3OxtzUUmbiVd36FKbkzM-40" target="3OxtzUUmbiVd36FKbkzM-39">
          <mxGeometry relative="1" as="geometry" />
        </mxCell>
        <mxCell id="3OxtzUUmbiVd36FKbkzM-40" value="&lt;span style=&quot;font-size: 16px;&quot;&gt;销售意向单&lt;/span&gt;" style="rounded=0;whiteSpace=wrap;html=1;fillColor=#f0a30a;strokeColor=#BD7000;fontColor=#000000;" vertex="1" parent="1">
          <mxGeometry x="2620" y="235" width="90" height="40" as="geometry" />
        </mxCell>
        <mxCell id="3OxtzUUmbiVd36FKbkzM-100" style="edgeStyle=orthogonalEdgeStyle;rounded=0;orthogonalLoop=1;jettySize=auto;html=1;fontSize=16;" edge="1" parent="1" source="3OxtzUUmbiVd36FKbkzM-41">
          <mxGeometry relative="1" as="geometry">
            <mxPoint x="2400" y="255" as="targetPoint" />
            <Array as="points">
              <mxPoint x="2846" y="300" />
              <mxPoint x="2400" y="300" />
            </Array>
          </mxGeometry>
        </mxCell>
        <mxCell id="3OxtzUUmbiVd36FKbkzM-41" value="&lt;span style=&quot;font-size: 16px;&quot;&gt;2B销售&lt;/span&gt;" style="rounded=0;whiteSpace=wrap;html=1;fillColor=#008a00;strokeColor=#005700;fontColor=#ffffff;" vertex="1" parent="1">
          <mxGeometry x="2801" y="235" width="90" height="40" as="geometry" />
        </mxCell>
        <mxCell id="3OxtzUUmbiVd36FKbkzM-42" value="&lt;span style=&quot;font-size: 16px;&quot;&gt;配额计划&lt;/span&gt;" style="rounded=0;whiteSpace=wrap;html=1;fillColor=#fff2cc;strokeColor=#d6b656;" vertex="1" parent="1">
          <mxGeometry x="2450" y="-25" width="90" height="40" as="geometry" />
        </mxCell>
        <mxCell id="3OxtzUUmbiVd36FKbkzM-43" value="&lt;span style=&quot;font-size: 16px;&quot;&gt;渠道计划&lt;/span&gt;" style="rounded=0;whiteSpace=wrap;html=1;fillColor=#fff2cc;strokeColor=#d6b656;" vertex="1" parent="1">
          <mxGeometry x="2450" y="45" width="90" height="40" as="geometry" />
        </mxCell>
        <mxCell id="3OxtzUUmbiVd36FKbkzM-44" value="&lt;span style=&quot;font-size: 16px;&quot;&gt;供销市场&lt;/span&gt;" style="rounded=0;whiteSpace=wrap;html=1;fillColor=#dae8fc;strokeColor=#6c8ebf;" vertex="1" parent="1">
          <mxGeometry x="2620" y="-25" width="90" height="40" as="geometry" />
        </mxCell>
        <mxCell id="3OxtzUUmbiVd36FKbkzM-45" value="&lt;span style=&quot;font-size: 16px;&quot;&gt;分销网络&lt;/span&gt;" style="rounded=0;whiteSpace=wrap;html=1;fillColor=#dae8fc;strokeColor=#6c8ebf;" vertex="1" parent="1">
          <mxGeometry x="2620" y="45" width="90" height="40" as="geometry" />
        </mxCell>
        <mxCell id="3OxtzUUmbiVd36FKbkzM-46" value="&lt;span style=&quot;font-size: 16px;&quot;&gt;渠道分销&lt;/span&gt;" style="rounded=0;whiteSpace=wrap;html=1;fillColor=#dae8fc;strokeColor=#6c8ebf;" vertex="1" parent="1">
          <mxGeometry x="2620" y="125" width="90" height="40" as="geometry" />
        </mxCell>
        <mxCell id="3OxtzUUmbiVd36FKbkzM-104" style="edgeStyle=orthogonalEdgeStyle;rounded=0;orthogonalLoop=1;jettySize=auto;html=1;entryX=1;entryY=0.5;entryDx=0;entryDy=0;fontSize=16;" edge="1" parent="1" source="3OxtzUUmbiVd36FKbkzM-47" target="3OxtzUUmbiVd36FKbkzM-95">
          <mxGeometry relative="1" as="geometry" />
        </mxCell>
        <mxCell id="3OxtzUUmbiVd36FKbkzM-106" style="edgeStyle=orthogonalEdgeStyle;rounded=0;orthogonalLoop=1;jettySize=auto;html=1;entryX=0.75;entryY=1;entryDx=0;entryDy=0;fontSize=16;" edge="1" parent="1" source="3OxtzUUmbiVd36FKbkzM-47" target="3OxtzUUmbiVd36FKbkzM-41">
          <mxGeometry relative="1" as="geometry">
            <Array as="points">
              <mxPoint x="3005" y="370" />
              <mxPoint x="2869" y="370" />
            </Array>
          </mxGeometry>
        </mxCell>
        <mxCell id="3OxtzUUmbiVd36FKbkzM-47" value="&lt;span style=&quot;font-size: 16px;&quot;&gt;清仓计划&lt;/span&gt;" style="rounded=0;whiteSpace=wrap;html=1;fillColor=#fff2cc;strokeColor=#d6b656;" vertex="1" parent="1">
          <mxGeometry x="2960" y="415" width="90" height="40" as="geometry" />
        </mxCell>
        <mxCell id="3OxtzUUmbiVd36FKbkzM-105" style="edgeStyle=orthogonalEdgeStyle;rounded=0;orthogonalLoop=1;jettySize=auto;html=1;entryX=0.5;entryY=1;entryDx=0;entryDy=0;fontSize=16;" edge="1" parent="1" source="3OxtzUUmbiVd36FKbkzM-48" target="3OxtzUUmbiVd36FKbkzM-47">
          <mxGeometry relative="1" as="geometry" />
        </mxCell>
        <mxCell id="3OxtzUUmbiVd36FKbkzM-48" value="&lt;span style=&quot;font-size: 16px;&quot;&gt;库存健康&lt;/span&gt;" style="rounded=0;whiteSpace=wrap;html=1;fillColor=#dae8fc;strokeColor=#6c8ebf;" vertex="1" parent="1">
          <mxGeometry x="3050" y="570" width="90" height="40" as="geometry" />
        </mxCell>
        <mxCell id="3OxtzUUmbiVd36FKbkzM-68" style="edgeStyle=orthogonalEdgeStyle;rounded=0;orthogonalLoop=1;jettySize=auto;html=1;entryX=0.5;entryY=0;entryDx=0;entryDy=0;fontSize=16;" edge="1" parent="1" source="3OxtzUUmbiVd36FKbkzM-66" target="3OxtzUUmbiVd36FKbkzM-67">
          <mxGeometry relative="1" as="geometry" />
        </mxCell>
        <mxCell id="3OxtzUUmbiVd36FKbkzM-66" value="&lt;span style=&quot;font-size: 16px;&quot;&gt;补充预测&lt;/span&gt;" style="rounded=0;whiteSpace=wrap;html=1;fillColor=#fff2cc;strokeColor=#d6b656;" vertex="1" parent="1">
          <mxGeometry x="790" y="90" width="90" height="40" as="geometry" />
        </mxCell>
        <mxCell id="3OxtzUUmbiVd36FKbkzM-69" style="edgeStyle=orthogonalEdgeStyle;rounded=0;orthogonalLoop=1;jettySize=auto;html=1;entryX=0.5;entryY=0;entryDx=0;entryDy=0;fontSize=16;" edge="1" parent="1" source="3OxtzUUmbiVd36FKbkzM-67" target="3OxtzUUmbiVd36FKbkzM-15">
          <mxGeometry relative="1" as="geometry" />
        </mxCell>
        <mxCell id="3OxtzUUmbiVd36FKbkzM-67" value="&lt;span style=&quot;font-size: 16px;&quot;&gt;补充计划&lt;/span&gt;" style="rounded=0;whiteSpace=wrap;html=1;fillColor=#fff2cc;strokeColor=#d6b656;" vertex="1" parent="1">
          <mxGeometry x="790" y="180" width="90" height="40" as="geometry" />
        </mxCell>
        <mxCell id="3OxtzUUmbiVd36FKbkzM-75" value="&lt;b&gt;上游链路：解决货品设计、生产&amp;amp;采购（inbound）&lt;/b&gt;" style="text;html=1;strokeColor=none;fillColor=none;align=center;verticalAlign=middle;whiteSpace=wrap;rounded=0;dashed=1;fontSize=16;" vertex="1" parent="1">
          <mxGeometry x="70" width="370" height="30" as="geometry" />
        </mxCell>
        <mxCell id="3OxtzUUmbiVd36FKbkzM-83" value="&lt;span style=&quot;font-size: 16px;&quot;&gt;货品中心&lt;/span&gt;" style="rounded=0;whiteSpace=wrap;html=1;fillColor=#dae8fc;strokeColor=#6c8ebf;" vertex="1" parent="1">
          <mxGeometry x="1890" y="-60" width="90" height="40" as="geometry" />
        </mxCell>
        <mxCell id="3OxtzUUmbiVd36FKbkzM-84" value="&lt;span style=&quot;font-size: 16px;&quot;&gt;服务商&lt;/span&gt;" style="rounded=0;whiteSpace=wrap;html=1;fillColor=#dae8fc;strokeColor=#6c8ebf;" vertex="1" parent="1">
          <mxGeometry x="1890" width="90" height="40" as="geometry" />
        </mxCell>
        <mxCell id="3OxtzUUmbiVd36FKbkzM-85" value="&lt;span style=&quot;font-size: 16px;&quot;&gt;组网&lt;/span&gt;" style="rounded=0;whiteSpace=wrap;html=1;fillColor=#dae8fc;strokeColor=#6c8ebf;" vertex="1" parent="1">
          <mxGeometry x="1890" y="70" width="90" height="40" as="geometry" />
        </mxCell>
        <mxCell id="3OxtzUUmbiVd36FKbkzM-86" value="&lt;span style=&quot;font-size: 16px;&quot;&gt;库存中心&lt;/span&gt;" style="rounded=0;whiteSpace=wrap;html=1;fillColor=#dae8fc;strokeColor=#6c8ebf;" vertex="1" parent="1">
          <mxGeometry x="1890" y="-130" width="90" height="40" as="geometry" />
        </mxCell>
        <mxCell id="3OxtzUUmbiVd36FKbkzM-88" value="&lt;b&gt;基础模块&lt;/b&gt;" style="text;html=1;strokeColor=none;fillColor=none;align=center;verticalAlign=middle;whiteSpace=wrap;rounded=0;dashed=1;fontSize=16;" vertex="1" parent="1">
          <mxGeometry x="1895" y="-190" width="80" height="30" as="geometry" />
        </mxCell>
        <mxCell id="3OxtzUUmbiVd36FKbkzM-90" value="&lt;b&gt;仓储供应链&lt;/b&gt;" style="text;html=1;strokeColor=none;fillColor=none;align=center;verticalAlign=middle;whiteSpace=wrap;rounded=0;dashed=1;fontSize=16;" vertex="1" parent="1">
          <mxGeometry x="1645" y="230" width="86" height="30" as="geometry" />
        </mxCell>
        <mxCell id="3OxtzUUmbiVd36FKbkzM-94" value="&lt;b&gt;供应链履约&lt;/b&gt;" style="text;html=1;strokeColor=none;fillColor=none;align=center;verticalAlign=middle;whiteSpace=wrap;rounded=0;dashed=1;fontSize=16;" vertex="1" parent="1">
          <mxGeometry x="2330" y="355" width="100" height="30" as="geometry" />
        </mxCell>
        <mxCell id="3OxtzUUmbiVd36FKbkzM-102" value="&lt;b&gt;渠道中心&lt;/b&gt;" style="text;html=1;strokeColor=none;fillColor=none;align=center;verticalAlign=middle;whiteSpace=wrap;rounded=0;dashed=1;fontSize=16;" vertex="1" parent="1">
          <mxGeometry x="2530" y="-55" width="80" height="30" as="geometry" />
        </mxCell>
        <mxCell id="3OxtzUUmbiVd36FKbkzM-103" value="&lt;b&gt;中油链路：产品的渠道分销，2B货品销售的流通（Outbound）&lt;/b&gt;" style="text;html=1;strokeColor=none;fillColor=none;align=center;verticalAlign=middle;whiteSpace=wrap;rounded=0;dashed=1;fontSize=16;" vertex="1" parent="1">
          <mxGeometry x="2280" y="-85" width="505" height="30" as="geometry" />
        </mxCell>
        <mxCell id="3OxtzUUmbiVd36FKbkzM-107" value="&lt;b&gt;2C履约&lt;/b&gt;" style="text;html=1;strokeColor=none;fillColor=none;align=center;verticalAlign=middle;whiteSpace=wrap;rounded=0;dashed=1;fontSize=16;" vertex="1" parent="1">
          <mxGeometry x="2270" y="554" width="60" height="30" as="geometry" />
        </mxCell>
        <mxCell id="3OxtzUUmbiVd36FKbkzM-108" value="下游链路：产品的零售、完成2C货品的支付（Outbound）" style="text;html=1;strokeColor=none;fillColor=none;align=center;verticalAlign=middle;whiteSpace=wrap;rounded=0;dashed=1;fontSize=16;" vertex="1" parent="1">
          <mxGeometry x="2265" y="690" width="420" height="30" as="geometry" />
        </mxCell>
      </root>
    </mxGraphModel>
  </diagram>
  <diagram id="Rgn_3isv_lEhLl7tsXbQ" name="第 2 页">
    <mxGraphModel dx="1747" dy="1031" grid="1" gridSize="10" guides="1" tooltips="1" connect="1" arrows="1" fold="1" page="1" pageScale="1" pageWidth="827" pageHeight="1169" math="0" shadow="0">
      <root>
        <mxCell id="0" />
        <mxCell id="1" parent="0" />
        <mxCell id="rLKYlNcv4A3WtqBvpCKB-1" value="上财年表现" style="rounded=0;whiteSpace=wrap;html=1;fontSize=16;" vertex="1" parent="1">
          <mxGeometry x="560" y="260" width="30" height="130" as="geometry" />
        </mxCell>
        <mxCell id="rLKYlNcv4A3WtqBvpCKB-2" value="本财年目标" style="rounded=0;whiteSpace=wrap;html=1;fontSize=16;" vertex="1" parent="1">
          <mxGeometry x="670" y="260" width="30" height="130" as="geometry" />
        </mxCell>
        <mxCell id="rLKYlNcv4A3WtqBvpCKB-3" value="本财年表现" style="rounded=0;whiteSpace=wrap;html=1;fontSize=16;" vertex="1" parent="1">
          <mxGeometry x="770" y="260" width="30" height="130" as="geometry" />
        </mxCell>
        <mxCell id="rLKYlNcv4A3WtqBvpCKB-4" value="GMV = 客户数*频次*笔单价（件数*件单价）" style="text;html=1;strokeColor=none;fillColor=none;align=center;verticalAlign=middle;whiteSpace=wrap;rounded=0;fontSize=16;" vertex="1" parent="1">
          <mxGeometry x="530" y="410" width="340" height="30" as="geometry" />
        </mxCell>
        <mxCell id="rLKYlNcv4A3WtqBvpCKB-5" value="" style="shape=singleArrow;direction=south;whiteSpace=wrap;html=1;fontSize=16;fillColor=#a0522d;fontColor=#ffffff;strokeColor=#6D1F00;" vertex="1" parent="1">
          <mxGeometry x="670" y="470" width="60" height="70" as="geometry" />
        </mxCell>
        <mxCell id="rLKYlNcv4A3WtqBvpCKB-6" value="价值品" style="text;html=1;strokeColor=none;fillColor=none;align=center;verticalAlign=middle;whiteSpace=wrap;rounded=0;fontSize=16;" vertex="1" parent="1">
          <mxGeometry x="560" y="590" width="70" height="40" as="geometry" />
        </mxCell>
        <mxCell id="rLKYlNcv4A3WtqBvpCKB-7" value="英雄品类" style="text;html=1;strokeColor=none;fillColor=none;align=center;verticalAlign=middle;whiteSpace=wrap;rounded=0;fontSize=16;" vertex="1" parent="1">
          <mxGeometry x="710" y="590" width="70" height="40" as="geometry" />
        </mxCell>
        <mxCell id="rLKYlNcv4A3WtqBvpCKB-8" value="一站式购齐" style="text;html=1;strokeColor=none;fillColor=none;align=center;verticalAlign=middle;whiteSpace=wrap;rounded=0;fontSize=16;" vertex="1" parent="1">
          <mxGeometry x="550" y="660" width="100" height="40" as="geometry" />
        </mxCell>
        <mxCell id="rLKYlNcv4A3WtqBvpCKB-9" value="引流品" style="text;html=1;strokeColor=none;fillColor=none;align=center;verticalAlign=middle;whiteSpace=wrap;rounded=0;fontSize=16;" vertex="1" parent="1">
          <mxGeometry x="700" y="660" width="100" height="40" as="geometry" />
        </mxCell>
        <mxCell id="rLKYlNcv4A3WtqBvpCKB-10" value="" style="endArrow=none;dashed=1;html=1;dashPattern=1 3;strokeWidth=2;rounded=0;fontSize=16;" edge="1" parent="1">
          <mxGeometry width="50" height="50" relative="1" as="geometry">
            <mxPoint x="560" y="650" as="sourcePoint" />
            <mxPoint x="790" y="650" as="targetPoint" />
          </mxGeometry>
        </mxCell>
        <mxCell id="rLKYlNcv4A3WtqBvpCKB-11" value="" style="endArrow=none;dashed=1;html=1;dashPattern=1 3;strokeWidth=2;rounded=0;fontSize=16;" edge="1" parent="1">
          <mxGeometry width="50" height="50" relative="1" as="geometry">
            <mxPoint x="680" y="700" as="sourcePoint" />
            <mxPoint x="680" y="590" as="targetPoint" />
          </mxGeometry>
        </mxCell>
        <mxCell id="rLKYlNcv4A3WtqBvpCKB-12" value="&lt;b&gt;经营计划&lt;/b&gt;" style="text;html=1;strokeColor=none;fillColor=none;align=center;verticalAlign=middle;whiteSpace=wrap;rounded=0;fontSize=16;" vertex="1" parent="1">
          <mxGeometry x="410" y="310" width="90" height="30" as="geometry" />
        </mxCell>
        <mxCell id="rLKYlNcv4A3WtqBvpCKB-13" value="&lt;b&gt;品类角色&lt;/b&gt;" style="text;html=1;strokeColor=none;fillColor=none;align=center;verticalAlign=middle;whiteSpace=wrap;rounded=0;fontSize=16;" vertex="1" parent="1">
          <mxGeometry x="410" y="630" width="90" height="30" as="geometry" />
        </mxCell>
        <mxCell id="rLKYlNcv4A3WtqBvpCKB-14" value="CDT&lt;br&gt;消费者&lt;br&gt;搜索" style="ellipse;whiteSpace=wrap;html=1;fontSize=16;" vertex="1" parent="1">
          <mxGeometry x="1030" y="550" width="100" height="70" as="geometry" />
        </mxCell>
        <mxCell id="rLKYlNcv4A3WtqBvpCKB-15" value="CDT&lt;br&gt;消费者&lt;br&gt;成交" style="ellipse;whiteSpace=wrap;html=1;fontSize=16;" vertex="1" parent="1">
          <mxGeometry x="1140" y="550" width="100" height="70" as="geometry" />
        </mxCell>
        <mxCell id="rLKYlNcv4A3WtqBvpCKB-16" value="商品&lt;br&gt;结构&lt;br&gt;机会" style="ellipse;whiteSpace=wrap;html=1;fontSize=16;" vertex="1" parent="1">
          <mxGeometry x="980" y="620" width="100" height="70" as="geometry" />
        </mxCell>
        <mxCell id="rLKYlNcv4A3WtqBvpCKB-17" value="本恩&lt;br&gt;机会&lt;br&gt;模型" style="ellipse;whiteSpace=wrap;html=1;fontSize=16;" vertex="1" parent="1">
          <mxGeometry x="1090" y="620" width="100" height="70" as="geometry" />
        </mxCell>
        <mxCell id="rLKYlNcv4A3WtqBvpCKB-18" value="竞对&lt;br&gt;商品&lt;br&gt;机会" style="ellipse;whiteSpace=wrap;html=1;fontSize=16;" vertex="1" parent="1">
          <mxGeometry x="1200" y="620" width="100" height="70" as="geometry" />
        </mxCell>
        <mxCell id="rLKYlNcv4A3WtqBvpCKB-19" value="&lt;b&gt;品类机会洞察&lt;/b&gt;" style="text;html=1;strokeColor=none;fillColor=none;align=center;verticalAlign=middle;whiteSpace=wrap;rounded=0;fontSize=16;" vertex="1" parent="1">
          <mxGeometry x="1080" y="490" width="110" height="30" as="geometry" />
        </mxCell>
        <mxCell id="rLKYlNcv4A3WtqBvpCKB-20" value="（品类角色配置、品类角色经营目标拆解）" style="text;html=1;strokeColor=none;fillColor=none;align=center;verticalAlign=middle;whiteSpace=wrap;rounded=0;fontSize=16;" vertex="1" parent="1">
          <mxGeometry x="500" y="720" width="340" height="30" as="geometry" />
        </mxCell>
        <mxCell id="rLKYlNcv4A3WtqBvpCKB-21" value="（所有选品算法集成，多维模型配置，趋势日历可视）" style="text;html=1;strokeColor=none;fillColor=none;align=center;verticalAlign=middle;whiteSpace=wrap;rounded=0;fontSize=16;" vertex="1" parent="1">
          <mxGeometry x="950" y="720" width="400" height="30" as="geometry" />
        </mxCell>
        <mxCell id="rLKYlNcv4A3WtqBvpCKB-24" value="" style="shape=singleArrow;whiteSpace=wrap;html=1;fontSize=16;fillColor=#a0522d;fontColor=#ffffff;strokeColor=#6D1F00;" vertex="1" parent="1">
          <mxGeometry x="840" y="620" width="80" height="60" as="geometry" />
        </mxCell>
        <mxCell id="rLKYlNcv4A3WtqBvpCKB-25" value="品类角色" style="ellipse;whiteSpace=wrap;html=1;fontSize=16;" vertex="1" parent="1">
          <mxGeometry x="210" y="890" width="100" height="70" as="geometry" />
        </mxCell>
        <mxCell id="rLKYlNcv4A3WtqBvpCKB-26" value="核心指标" style="ellipse;whiteSpace=wrap;html=1;fontSize=16;" vertex="1" parent="1">
          <mxGeometry x="320" y="890" width="100" height="70" as="geometry" />
        </mxCell>
        <mxCell id="rLKYlNcv4A3WtqBvpCKB-27" value="策略&lt;br&gt;目标" style="ellipse;whiteSpace=wrap;html=1;fontSize=16;" vertex="1" parent="1">
          <mxGeometry x="160" y="960" width="100" height="70" as="geometry" />
        </mxCell>
        <mxCell id="rLKYlNcv4A3WtqBvpCKB-28" value="品牌&lt;br&gt;表现" style="ellipse;whiteSpace=wrap;html=1;fontSize=16;" vertex="1" parent="1">
          <mxGeometry x="270" y="960" width="100" height="70" as="geometry" />
        </mxCell>
        <mxCell id="rLKYlNcv4A3WtqBvpCKB-29" value="商品&lt;br&gt;表现" style="ellipse;whiteSpace=wrap;html=1;fontSize=16;" vertex="1" parent="1">
          <mxGeometry x="380" y="960" width="100" height="70" as="geometry" />
        </mxCell>
        <mxCell id="rLKYlNcv4A3WtqBvpCKB-30" value="&lt;b&gt;品类复盘回顾&lt;/b&gt;" style="text;html=1;strokeColor=none;fillColor=none;align=center;verticalAlign=middle;whiteSpace=wrap;rounded=0;fontSize=16;" vertex="1" parent="1">
          <mxGeometry x="260" y="840" width="120" height="30" as="geometry" />
        </mxCell>
        <mxCell id="rLKYlNcv4A3WtqBvpCKB-31" value="&lt;font style=&quot;font-size: 36px;&quot;&gt;品类规划差异化规则&lt;/font&gt;：&lt;br&gt;&lt;font style=&quot;font-size: 24px;&quot;&gt;时间维度：by才把年，by半年，by季度，by月，by自定义&lt;br&gt;经营维度：业务线，行业，类目&lt;/font&gt;" style="rounded=0;whiteSpace=wrap;html=1;fontSize=16;align=left;" vertex="1" parent="1">
          <mxGeometry x="620" y="840" width="640" height="210" as="geometry" />
        </mxCell>
        <mxCell id="rLKYlNcv4A3WtqBvpCKB-32" value="新品&lt;br&gt;引入&lt;br&gt;策略" style="ellipse;whiteSpace=wrap;html=1;fontSize=16;" vertex="1" parent="1">
          <mxGeometry x="1510" y="860" width="100" height="70" as="geometry" />
        </mxCell>
        <mxCell id="rLKYlNcv4A3WtqBvpCKB-33" value="品牌&lt;br&gt;合作&lt;br&gt;策略" style="ellipse;whiteSpace=wrap;html=1;fontSize=16;" vertex="1" parent="1">
          <mxGeometry x="1620" y="860" width="100" height="70" as="geometry" />
        </mxCell>
        <mxCell id="rLKYlNcv4A3WtqBvpCKB-34" value="营销&lt;br&gt;策略" style="ellipse;whiteSpace=wrap;html=1;fontSize=16;" vertex="1" parent="1">
          <mxGeometry x="1460" y="930" width="100" height="70" as="geometry" />
        </mxCell>
        <mxCell id="rLKYlNcv4A3WtqBvpCKB-35" value="供应链&lt;br&gt;策略" style="ellipse;whiteSpace=wrap;html=1;fontSize=16;" vertex="1" parent="1">
          <mxGeometry x="1570" y="930" width="100" height="70" as="geometry" />
        </mxCell>
        <mxCell id="rLKYlNcv4A3WtqBvpCKB-36" value="价格&lt;br&gt;毛利&lt;br&gt;策略" style="ellipse;whiteSpace=wrap;html=1;fontSize=16;" vertex="1" parent="1">
          <mxGeometry x="1680" y="930" width="100" height="70" as="geometry" />
        </mxCell>
        <mxCell id="rLKYlNcv4A3WtqBvpCKB-37" value="&lt;b&gt;品类策略&lt;/b&gt;" style="text;html=1;strokeColor=none;fillColor=none;align=center;verticalAlign=middle;whiteSpace=wrap;rounded=0;fontSize=16;" vertex="1" parent="1">
          <mxGeometry x="1560" y="810" width="120" height="30" as="geometry" />
        </mxCell>
        <mxCell id="rLKYlNcv4A3WtqBvpCKB-38" value="（品类策略配置，品类策略管理，品类策略跟踪）" style="text;html=1;strokeColor=none;fillColor=none;align=center;verticalAlign=middle;whiteSpace=wrap;rounded=0;fontSize=16;" vertex="1" parent="1">
          <mxGeometry x="1430" y="1020" width="400" height="30" as="geometry" />
        </mxCell>
        <mxCell id="rLKYlNcv4A3WtqBvpCKB-39" value="&lt;font style=&quot;font-size: 16px;&quot;&gt;任务目标&lt;/font&gt;" style="rounded=0;whiteSpace=wrap;html=1;fontSize=24;" vertex="1" parent="1">
          <mxGeometry x="660" y="1220" width="120" height="51" as="geometry" />
        </mxCell>
        <mxCell id="rLKYlNcv4A3WtqBvpCKB-40" value="&lt;font style=&quot;font-size: 16px;&quot;&gt;任务流程&lt;/font&gt;" style="rounded=0;whiteSpace=wrap;html=1;fontSize=24;" vertex="1" parent="1">
          <mxGeometry x="660" y="1281" width="120" height="51" as="geometry" />
        </mxCell>
        <mxCell id="rLKYlNcv4A3WtqBvpCKB-41" value="&lt;font style=&quot;font-size: 16px;&quot;&gt;任务规则&lt;/font&gt;" style="rounded=0;whiteSpace=wrap;html=1;fontSize=24;" vertex="1" parent="1">
          <mxGeometry x="660" y="1341" width="120" height="51" as="geometry" />
        </mxCell>
        <mxCell id="rLKYlNcv4A3WtqBvpCKB-42" value="&lt;b&gt;品类跟踪协同&lt;/b&gt;" style="text;html=1;strokeColor=none;fillColor=none;align=center;verticalAlign=middle;whiteSpace=wrap;rounded=0;fontSize=16;" vertex="1" parent="1">
          <mxGeometry x="510" y="1281" width="110" height="30" as="geometry" />
        </mxCell>
        <mxCell id="rLKYlNcv4A3WtqBvpCKB-43" value="新品&lt;br&gt;引入&lt;br&gt;孵化" style="ellipse;whiteSpace=wrap;html=1;fontSize=16;" vertex="1" parent="1">
          <mxGeometry x="1150" y="1251" width="100" height="70" as="geometry" />
        </mxCell>
        <mxCell id="rLKYlNcv4A3WtqBvpCKB-44" value="品牌&lt;br&gt;合同&lt;br&gt;签署" style="ellipse;whiteSpace=wrap;html=1;fontSize=16;" vertex="1" parent="1">
          <mxGeometry x="1260" y="1250.5" width="100" height="70" as="geometry" />
        </mxCell>
        <mxCell id="rLKYlNcv4A3WtqBvpCKB-45" value="品类&lt;br&gt;汰换" style="ellipse;whiteSpace=wrap;html=1;fontSize=16;" vertex="1" parent="1">
          <mxGeometry x="1150" y="1330" width="100" height="70" as="geometry" />
        </mxCell>
        <mxCell id="rLKYlNcv4A3WtqBvpCKB-46" value="营销&lt;br&gt;活动&lt;br&gt;报告" style="ellipse;whiteSpace=wrap;html=1;fontSize=16;" vertex="1" parent="1">
          <mxGeometry x="1260" y="1330" width="100" height="70" as="geometry" />
        </mxCell>
        <mxCell id="rLKYlNcv4A3WtqBvpCKB-47" value="流程&lt;br&gt;分配&lt;br&gt;调优" style="ellipse;whiteSpace=wrap;html=1;fontSize=16;" vertex="1" parent="1">
          <mxGeometry x="1370" y="1330" width="100" height="70" as="geometry" />
        </mxCell>
        <mxCell id="rLKYlNcv4A3WtqBvpCKB-48" value="品类&lt;br&gt;宽度&lt;br&gt;管理" style="ellipse;whiteSpace=wrap;html=1;fontSize=16;" vertex="1" parent="1">
          <mxGeometry x="1370" y="1250.5" width="100" height="70" as="geometry" />
        </mxCell>
        <mxCell id="rLKYlNcv4A3WtqBvpCKB-49" value="&lt;b&gt;品类落地执行&lt;/b&gt;" style="text;html=1;strokeColor=none;fillColor=none;align=center;verticalAlign=middle;whiteSpace=wrap;rounded=0;fontSize=16;" vertex="1" parent="1">
          <mxGeometry x="1250" y="1190" width="120" height="30" as="geometry" />
        </mxCell>
        <mxCell id="rLKYlNcv4A3WtqBvpCKB-50" value="" style="shape=singleArrow;direction=west;whiteSpace=wrap;html=1;fontSize=16;fillColor=#a0522d;fontColor=#ffffff;strokeColor=#6D1F00;" vertex="1" parent="1">
          <mxGeometry x="940" y="1281" width="100" height="60" as="geometry" />
        </mxCell>
        <mxCell id="rLKYlNcv4A3WtqBvpCKB-51" value="" style="shape=singleArrow;direction=west;whiteSpace=wrap;html=1;fontSize=16;rotation=60;fillColor=#a0522d;fontColor=#ffffff;strokeColor=#6D1F00;" vertex="1" parent="1">
          <mxGeometry x="330" y="1160" width="120" height="60" as="geometry" />
        </mxCell>
        <mxCell id="rLKYlNcv4A3WtqBvpCKB-52" value="" style="shape=singleArrow;direction=west;whiteSpace=wrap;html=1;fontSize=16;rotation=-225;fillColor=#a0522d;fontColor=#ffffff;strokeColor=#6D1F00;" vertex="1" parent="1">
          <mxGeometry x="320.00076211353314" y="740.0015242270663" width="120" height="60" as="geometry" />
        </mxCell>
        <mxCell id="rLKYlNcv4A3WtqBvpCKB-53" value="" style="shape=singleArrow;direction=west;whiteSpace=wrap;html=1;fontSize=16;rotation=-138;fillColor=#a0522d;fontColor=#ffffff;strokeColor=#6D1F00;" vertex="1" parent="1">
          <mxGeometry x="1399.9996103067892" y="719.9996103067894" width="120" height="60" as="geometry" />
        </mxCell>
        <mxCell id="rLKYlNcv4A3WtqBvpCKB-54" value="" style="shape=singleArrow;direction=west;whiteSpace=wrap;html=1;fontSize=16;rotation=-60;fillColor=#a0522d;fontColor=#ffffff;strokeColor=#6D1F00;" vertex="1" parent="1">
          <mxGeometry x="1540.0026077194093" y="1169.0021811458532" width="120" height="60" as="geometry" />
        </mxCell>
      </root>
    </mxGraphModel>
  </diagram>
  <diagram id="eVRv7L3IJtd1RAk42Ljm" name="第 3 页">
    <mxGraphModel dx="1429" dy="844" grid="1" gridSize="10" guides="1" tooltips="1" connect="1" arrows="1" fold="1" page="1" pageScale="1" pageWidth="827" pageHeight="1169" math="0" shadow="0">
      <root>
        <mxCell id="0" />
        <mxCell id="1" parent="0" />
        <mxCell id="3RqOPwZ0_-GGfL-724SV-46" value="" style="rounded=0;whiteSpace=wrap;html=1;fontSize=24;" vertex="1" parent="1">
          <mxGeometry x="150" y="440" width="1390" height="460" as="geometry" />
        </mxCell>
        <mxCell id="3RqOPwZ0_-GGfL-724SV-44" value="" style="rounded=0;whiteSpace=wrap;html=1;fontSize=16;" vertex="1" parent="1">
          <mxGeometry x="150" y="130" width="1380" height="280" as="geometry" />
        </mxCell>
        <mxCell id="3RqOPwZ0_-GGfL-724SV-1" value="活动创建" style="rounded=0;whiteSpace=wrap;html=1;fontSize=16;fillColor=#0050ef;fontColor=#ffffff;strokeColor=#001DBC;" vertex="1" parent="1">
          <mxGeometry x="190" y="70" width="110" height="40" as="geometry" />
        </mxCell>
        <mxCell id="3RqOPwZ0_-GGfL-724SV-2" value="目标协同" style="rounded=0;whiteSpace=wrap;html=1;fontSize=16;fillColor=#0050ef;fontColor=#ffffff;strokeColor=#001DBC;" vertex="1" parent="1">
          <mxGeometry x="460" y="70" width="110" height="40" as="geometry" />
        </mxCell>
        <mxCell id="3RqOPwZ0_-GGfL-724SV-3" value="补货入库" style="rounded=0;whiteSpace=wrap;html=1;fontSize=16;fillColor=#0050ef;fontColor=#ffffff;strokeColor=#001DBC;" vertex="1" parent="1">
          <mxGeometry x="710" y="70" width="110" height="40" as="geometry" />
        </mxCell>
        <mxCell id="3RqOPwZ0_-GGfL-724SV-4" value="招商投放" style="rounded=0;whiteSpace=wrap;html=1;fontSize=16;fillColor=#0050ef;fontColor=#ffffff;strokeColor=#001DBC;" vertex="1" parent="1">
          <mxGeometry x="940" y="70" width="110" height="40" as="geometry" />
        </mxCell>
        <mxCell id="3RqOPwZ0_-GGfL-724SV-5" value="月中销售" style="rounded=0;whiteSpace=wrap;html=1;fontSize=16;fillColor=#0050ef;fontColor=#ffffff;strokeColor=#001DBC;" vertex="1" parent="1">
          <mxGeometry x="1240" y="70" width="110" height="40" as="geometry" />
        </mxCell>
        <mxCell id="3RqOPwZ0_-GGfL-724SV-28" style="edgeStyle=orthogonalEdgeStyle;rounded=0;orthogonalLoop=1;jettySize=auto;html=1;entryX=0.5;entryY=0;entryDx=0;entryDy=0;fontSize=16;" edge="1" parent="1" source="3RqOPwZ0_-GGfL-724SV-6" target="3RqOPwZ0_-GGfL-724SV-7">
          <mxGeometry relative="1" as="geometry" />
        </mxCell>
        <mxCell id="3RqOPwZ0_-GGfL-724SV-6" value="日常活动创建&lt;br&gt;供应链PM" style="rounded=0;whiteSpace=wrap;html=1;fontSize=16;" vertex="1" parent="1">
          <mxGeometry x="170" y="170" width="120" height="60" as="geometry" />
        </mxCell>
        <mxCell id="3RqOPwZ0_-GGfL-724SV-29" style="edgeStyle=orthogonalEdgeStyle;rounded=0;orthogonalLoop=1;jettySize=auto;html=1;entryX=0;entryY=0.5;entryDx=0;entryDy=0;fontSize=16;" edge="1" parent="1" source="3RqOPwZ0_-GGfL-724SV-7" target="3RqOPwZ0_-GGfL-724SV-8">
          <mxGeometry relative="1" as="geometry" />
        </mxCell>
        <mxCell id="3RqOPwZ0_-GGfL-724SV-7" value="销量预测&lt;br&gt;供应链PM" style="rounded=0;whiteSpace=wrap;html=1;fontSize=16;" vertex="1" parent="1">
          <mxGeometry x="170" y="280" width="120" height="60" as="geometry" />
        </mxCell>
        <mxCell id="3RqOPwZ0_-GGfL-724SV-8" value="商家提交目标&lt;br&gt;商家" style="rounded=0;whiteSpace=wrap;html=1;fontSize=16;" vertex="1" parent="1">
          <mxGeometry x="455" y="210" width="120" height="60" as="geometry" />
        </mxCell>
        <mxCell id="3RqOPwZ0_-GGfL-724SV-30" style="edgeStyle=orthogonalEdgeStyle;rounded=0;orthogonalLoop=1;jettySize=auto;html=1;entryX=0.5;entryY=0;entryDx=0;entryDy=0;fontSize=16;" edge="1" parent="1" source="3RqOPwZ0_-GGfL-724SV-9" target="3RqOPwZ0_-GGfL-724SV-6">
          <mxGeometry relative="1" as="geometry">
            <Array as="points">
              <mxPoint x="1000" y="150" />
              <mxPoint x="230" y="150" />
            </Array>
          </mxGeometry>
        </mxCell>
        <mxCell id="3RqOPwZ0_-GGfL-724SV-32" style="edgeStyle=orthogonalEdgeStyle;rounded=0;orthogonalLoop=1;jettySize=auto;html=1;entryX=0.5;entryY=0;entryDx=0;entryDy=0;fontSize=16;" edge="1" parent="1" source="3RqOPwZ0_-GGfL-724SV-9" target="3RqOPwZ0_-GGfL-724SV-31">
          <mxGeometry relative="1" as="geometry" />
        </mxCell>
        <mxCell id="3RqOPwZ0_-GGfL-724SV-9" value="商家报名&lt;br&gt;商家" style="rounded=0;whiteSpace=wrap;html=1;fontSize=16;" vertex="1" parent="1">
          <mxGeometry x="940" y="210" width="120" height="60" as="geometry" />
        </mxCell>
        <mxCell id="3RqOPwZ0_-GGfL-724SV-40" style="edgeStyle=orthogonalEdgeStyle;rounded=0;orthogonalLoop=1;jettySize=auto;html=1;entryX=0.5;entryY=0;entryDx=0;entryDy=0;fontSize=16;" edge="1" parent="1" source="3RqOPwZ0_-GGfL-724SV-10" target="3RqOPwZ0_-GGfL-724SV-12">
          <mxGeometry relative="1" as="geometry" />
        </mxCell>
        <mxCell id="3RqOPwZ0_-GGfL-724SV-10" value="数据跟踪&lt;br&gt;行业运营" style="rounded=0;whiteSpace=wrap;html=1;fontSize=16;" vertex="1" parent="1">
          <mxGeometry x="1190" y="210" width="120" height="60" as="geometry" />
        </mxCell>
        <mxCell id="3RqOPwZ0_-GGfL-724SV-39" style="edgeStyle=orthogonalEdgeStyle;rounded=0;orthogonalLoop=1;jettySize=auto;html=1;fontSize=16;" edge="1" parent="1" source="3RqOPwZ0_-GGfL-724SV-11">
          <mxGeometry relative="1" as="geometry">
            <mxPoint x="1310" y="240" as="targetPoint" />
          </mxGeometry>
        </mxCell>
        <mxCell id="3RqOPwZ0_-GGfL-724SV-11" value="会场调优&lt;br&gt;营销运营" style="rounded=0;whiteSpace=wrap;html=1;fontSize=16;" vertex="1" parent="1">
          <mxGeometry x="1380" y="210" width="120" height="60" as="geometry" />
        </mxCell>
        <mxCell id="3RqOPwZ0_-GGfL-724SV-41" style="edgeStyle=orthogonalEdgeStyle;rounded=0;orthogonalLoop=1;jettySize=auto;html=1;entryX=0;entryY=0.5;entryDx=0;entryDy=0;fontSize=16;" edge="1" parent="1" source="3RqOPwZ0_-GGfL-724SV-12" target="3RqOPwZ0_-GGfL-724SV-13">
          <mxGeometry relative="1" as="geometry" />
        </mxCell>
        <mxCell id="3RqOPwZ0_-GGfL-724SV-12" value="资源调整&lt;br&gt;营销运用" style="rounded=0;whiteSpace=wrap;html=1;fontSize=16;" vertex="1" parent="1">
          <mxGeometry x="1190" y="320" width="120" height="60" as="geometry" />
        </mxCell>
        <mxCell id="3RqOPwZ0_-GGfL-724SV-42" style="edgeStyle=orthogonalEdgeStyle;rounded=0;orthogonalLoop=1;jettySize=auto;html=1;entryX=0.5;entryY=1;entryDx=0;entryDy=0;fontSize=16;" edge="1" parent="1" source="3RqOPwZ0_-GGfL-724SV-13" target="3RqOPwZ0_-GGfL-724SV-11">
          <mxGeometry relative="1" as="geometry" />
        </mxCell>
        <mxCell id="3RqOPwZ0_-GGfL-724SV-13" value="商家加码&lt;br&gt;商家/行业运营" style="rounded=0;whiteSpace=wrap;html=1;fontSize=16;" vertex="1" parent="1">
          <mxGeometry x="1380" y="320" width="120" height="60" as="geometry" />
        </mxCell>
        <mxCell id="3RqOPwZ0_-GGfL-724SV-33" style="edgeStyle=orthogonalEdgeStyle;rounded=0;orthogonalLoop=1;jettySize=auto;html=1;entryX=0.5;entryY=0;entryDx=0;entryDy=0;fontSize=16;" edge="1" parent="1" source="3RqOPwZ0_-GGfL-724SV-14" target="3RqOPwZ0_-GGfL-724SV-15">
          <mxGeometry relative="1" as="geometry" />
        </mxCell>
        <mxCell id="3RqOPwZ0_-GGfL-724SV-35" style="edgeStyle=orthogonalEdgeStyle;rounded=0;orthogonalLoop=1;jettySize=auto;html=1;entryX=0;entryY=0.5;entryDx=0;entryDy=0;fontSize=16;" edge="1" parent="1" source="3RqOPwZ0_-GGfL-724SV-14" target="3RqOPwZ0_-GGfL-724SV-20">
          <mxGeometry relative="1" as="geometry">
            <Array as="points">
              <mxPoint x="890" y="360" />
              <mxPoint x="890" y="599" />
            </Array>
          </mxGeometry>
        </mxCell>
        <mxCell id="3RqOPwZ0_-GGfL-724SV-14" value="商家目标沟通&lt;br&gt;行业运营" style="rounded=0;whiteSpace=wrap;html=1;fontSize=16;" vertex="1" parent="1">
          <mxGeometry x="455" y="330" width="120" height="60" as="geometry" />
        </mxCell>
        <mxCell id="3RqOPwZ0_-GGfL-724SV-34" style="edgeStyle=orthogonalEdgeStyle;rounded=0;orthogonalLoop=1;jettySize=auto;html=1;entryX=0;entryY=0.5;entryDx=0;entryDy=0;fontSize=16;" edge="1" parent="1" source="3RqOPwZ0_-GGfL-724SV-15" target="3RqOPwZ0_-GGfL-724SV-16">
          <mxGeometry relative="1" as="geometry" />
        </mxCell>
        <mxCell id="3RqOPwZ0_-GGfL-724SV-15" value="供应链参数确认&lt;br&gt;商家/供应链运营" style="rounded=0;whiteSpace=wrap;html=1;fontSize=16;" vertex="1" parent="1">
          <mxGeometry x="455" y="460" width="120" height="60" as="geometry" />
        </mxCell>
        <mxCell id="3RqOPwZ0_-GGfL-724SV-36" style="edgeStyle=orthogonalEdgeStyle;rounded=0;orthogonalLoop=1;jettySize=auto;html=1;entryX=0.5;entryY=0;entryDx=0;entryDy=0;fontSize=16;" edge="1" parent="1" source="3RqOPwZ0_-GGfL-724SV-16" target="3RqOPwZ0_-GGfL-724SV-17">
          <mxGeometry relative="1" as="geometry" />
        </mxCell>
        <mxCell id="3RqOPwZ0_-GGfL-724SV-16" value="补货参数建议&lt;br&gt;商家/供应链运营" style="rounded=0;whiteSpace=wrap;html=1;fontSize=16;" vertex="1" parent="1">
          <mxGeometry x="720" y="460" width="120" height="60" as="geometry" />
        </mxCell>
        <mxCell id="3RqOPwZ0_-GGfL-724SV-37" style="edgeStyle=orthogonalEdgeStyle;rounded=0;orthogonalLoop=1;jettySize=auto;html=1;entryX=0.4;entryY=-0.029;entryDx=0;entryDy=0;entryPerimeter=0;fontSize=16;" edge="1" parent="1" source="3RqOPwZ0_-GGfL-724SV-17" target="3RqOPwZ0_-GGfL-724SV-18">
          <mxGeometry relative="1" as="geometry" />
        </mxCell>
        <mxCell id="3RqOPwZ0_-GGfL-724SV-17" value="补货参数确认&lt;br&gt;商家/供应链运营" style="rounded=0;whiteSpace=wrap;html=1;fontSize=16;" vertex="1" parent="1">
          <mxGeometry x="721" y="569" width="120" height="60" as="geometry" />
        </mxCell>
        <mxCell id="3RqOPwZ0_-GGfL-724SV-38" style="edgeStyle=orthogonalEdgeStyle;rounded=0;orthogonalLoop=1;jettySize=auto;html=1;entryX=0.5;entryY=0;entryDx=0;entryDy=0;fontSize=16;" edge="1" parent="1" source="3RqOPwZ0_-GGfL-724SV-18" target="3RqOPwZ0_-GGfL-724SV-19">
          <mxGeometry relative="1" as="geometry" />
        </mxCell>
        <mxCell id="3RqOPwZ0_-GGfL-724SV-18" value="计划内参数自动审核&lt;br&gt;商家/供应链运营" style="rounded=0;whiteSpace=wrap;html=1;fontSize=16;" vertex="1" parent="1">
          <mxGeometry x="720" y="680" width="150" height="60" as="geometry" />
        </mxCell>
        <mxCell id="3RqOPwZ0_-GGfL-724SV-19" value="商家进销存推演&lt;br&gt;商家/供应链运营" style="rounded=0;whiteSpace=wrap;html=1;fontSize=16;" vertex="1" parent="1">
          <mxGeometry x="721" y="790" width="150" height="60" as="geometry" />
        </mxCell>
        <mxCell id="3RqOPwZ0_-GGfL-724SV-20" value="入库/仓容/出库能力准备&lt;br&gt;商家/供应链运营" style="rounded=0;whiteSpace=wrap;html=1;fontSize=16;" vertex="1" parent="1">
          <mxGeometry x="930" y="569" width="190" height="60" as="geometry" />
        </mxCell>
        <mxCell id="3RqOPwZ0_-GGfL-724SV-43" style="edgeStyle=orthogonalEdgeStyle;rounded=0;orthogonalLoop=1;jettySize=auto;html=1;entryX=0.5;entryY=0;entryDx=0;entryDy=0;fontSize=16;" edge="1" parent="1" source="3RqOPwZ0_-GGfL-724SV-21" target="3RqOPwZ0_-GGfL-724SV-22">
          <mxGeometry relative="1" as="geometry" />
        </mxCell>
        <mxCell id="3RqOPwZ0_-GGfL-724SV-21" value="库存预估(行业、商家、货品、商品)&lt;br&gt;供应链运营" style="rounded=0;whiteSpace=wrap;html=1;fontSize=16;" vertex="1" parent="1">
          <mxGeometry x="1210" y="569" width="270" height="60" as="geometry" />
        </mxCell>
        <mxCell id="3RqOPwZ0_-GGfL-724SV-22" value="加急上架/补货&lt;br&gt;供应链运营" style="rounded=0;whiteSpace=wrap;html=1;fontSize=16;" vertex="1" parent="1">
          <mxGeometry x="1210" y="680" width="270" height="60" as="geometry" />
        </mxCell>
        <mxCell id="3RqOPwZ0_-GGfL-724SV-23" value="目标管理" style="rounded=0;whiteSpace=wrap;html=1;fontSize=16;fillColor=#e3c800;fontColor=#000000;strokeColor=#B09500;" vertex="1" parent="1">
          <mxGeometry x="185" y="940" width="120" height="60" as="geometry" />
        </mxCell>
        <mxCell id="3RqOPwZ0_-GGfL-724SV-24" value="销售计划" style="rounded=0;whiteSpace=wrap;html=1;fontSize=16;fillColor=#e3c800;fontColor=#000000;strokeColor=#B09500;" vertex="1" parent="1">
          <mxGeometry x="455" y="940" width="120" height="60" as="geometry" />
        </mxCell>
        <mxCell id="3RqOPwZ0_-GGfL-724SV-25" value="补货计划" style="rounded=0;whiteSpace=wrap;html=1;fontSize=16;fillColor=#e3c800;fontColor=#000000;strokeColor=#B09500;" vertex="1" parent="1">
          <mxGeometry x="736" y="940" width="120" height="60" as="geometry" />
        </mxCell>
        <mxCell id="3RqOPwZ0_-GGfL-724SV-26" value="库存计划" style="rounded=0;whiteSpace=wrap;html=1;fontSize=16;fillColor=#e3c800;fontColor=#000000;strokeColor=#B09500;" vertex="1" parent="1">
          <mxGeometry x="965" y="940" width="120" height="60" as="geometry" />
        </mxCell>
        <mxCell id="3RqOPwZ0_-GGfL-724SV-27" value="仓容计划" style="rounded=0;whiteSpace=wrap;html=1;fontSize=16;fillColor=#e3c800;fontColor=#000000;strokeColor=#B09500;" vertex="1" parent="1">
          <mxGeometry x="1260" y="940" width="120" height="60" as="geometry" />
        </mxCell>
        <mxCell id="3RqOPwZ0_-GGfL-724SV-31" value="商家申报&lt;br&gt;商家" style="rounded=0;whiteSpace=wrap;html=1;fontSize=16;" vertex="1" parent="1">
          <mxGeometry x="940" y="320" width="120" height="60" as="geometry" />
        </mxCell>
        <mxCell id="3RqOPwZ0_-GGfL-724SV-45" value="&lt;font style=&quot;font-size: 24px;&quot;&gt;销&lt;br&gt;售&lt;br&gt;侧&lt;/font&gt;" style="text;html=1;strokeColor=none;fillColor=none;align=center;verticalAlign=middle;whiteSpace=wrap;rounded=0;fontSize=16;" vertex="1" parent="1">
          <mxGeometry x="50" y="185" width="60" height="105" as="geometry" />
        </mxCell>
        <mxCell id="3RqOPwZ0_-GGfL-724SV-47" value="&lt;span style=&quot;font-size: 24px;&quot;&gt;供&lt;br&gt;给&lt;br&gt;侧&lt;/span&gt;" style="text;html=1;strokeColor=none;fillColor=none;align=center;verticalAlign=middle;whiteSpace=wrap;rounded=0;fontSize=16;" vertex="1" parent="1">
          <mxGeometry x="40" y="590" width="60" height="105" as="geometry" />
        </mxCell>
      </root>
    </mxGraphModel>
  </diagram>
  <diagram id="nYFVRV0aLfI0EufGi22d" name="第 4 页">
    <mxGraphModel dx="2620" dy="2716" grid="1" gridSize="10" guides="1" tooltips="1" connect="1" arrows="1" fold="1" page="1" pageScale="1" pageWidth="827" pageHeight="1169" math="0" shadow="0">
      <root>
        <mxCell id="0" />
        <mxCell id="1" parent="0" />
        <mxCell id="EjQxMNygBXXTr7f1C9xY-30" value="" style="rounded=0;whiteSpace=wrap;html=1;fontSize=24;fillColor=#fad7ac;strokeColor=#b46504;" vertex="1" parent="1">
          <mxGeometry x="170" y="540" width="940" height="740" as="geometry" />
        </mxCell>
        <mxCell id="EjQxMNygBXXTr7f1C9xY-12" value="" style="rounded=1;whiteSpace=wrap;html=1;fontSize=18;fillColor=#d0cee2;strokeColor=#56517e;" vertex="1" parent="1">
          <mxGeometry x="1010" y="70" width="200" height="155" as="geometry" />
        </mxCell>
        <mxCell id="EjQxMNygBXXTr7f1C9xY-10" value="" style="rounded=1;whiteSpace=wrap;html=1;fontSize=18;fillColor=#d0cee2;strokeColor=#56517e;" vertex="1" parent="1">
          <mxGeometry x="745" y="70" width="200" height="155" as="geometry" />
        </mxCell>
        <mxCell id="EjQxMNygBXXTr7f1C9xY-6" value="" style="rounded=1;whiteSpace=wrap;html=1;fontSize=18;fillColor=#d0cee2;strokeColor=#56517e;" vertex="1" parent="1">
          <mxGeometry x="90" y="70" width="580" height="160" as="geometry" />
        </mxCell>
        <mxCell id="EjQxMNygBXXTr7f1C9xY-1" value="&lt;font style=&quot;font-size: 18px;&quot;&gt;搜索&lt;/font&gt;" style="ellipse;whiteSpace=wrap;html=1;fontSize=24;" vertex="1" parent="1">
          <mxGeometry x="130" y="120" width="90" height="60" as="geometry" />
        </mxCell>
        <mxCell id="EjQxMNygBXXTr7f1C9xY-3" value="&lt;font style=&quot;font-size: 18px;&quot;&gt;导购&lt;/font&gt;" style="ellipse;whiteSpace=wrap;html=1;fontSize=24;" vertex="1" parent="1">
          <mxGeometry x="270" y="120" width="90" height="60" as="geometry" />
        </mxCell>
        <mxCell id="EjQxMNygBXXTr7f1C9xY-4" value="&lt;font style=&quot;font-size: 18px;&quot;&gt;商详&lt;/font&gt;" style="ellipse;whiteSpace=wrap;html=1;fontSize=24;" vertex="1" parent="1">
          <mxGeometry x="400" y="120" width="90" height="60" as="geometry" />
        </mxCell>
        <mxCell id="EjQxMNygBXXTr7f1C9xY-5" value="&lt;font style=&quot;font-size: 18px;&quot;&gt;交易&lt;/font&gt;" style="ellipse;whiteSpace=wrap;html=1;fontSize=24;" vertex="1" parent="1">
          <mxGeometry x="540" y="120" width="90" height="60" as="geometry" />
        </mxCell>
        <mxCell id="EjQxMNygBXXTr7f1C9xY-7" value="&lt;b&gt;抖音商城&lt;/b&gt;" style="text;html=1;strokeColor=none;fillColor=none;align=center;verticalAlign=middle;whiteSpace=wrap;rounded=0;fontSize=18;" vertex="1" parent="1">
          <mxGeometry x="310" y="80" width="110" height="30" as="geometry" />
        </mxCell>
        <mxCell id="EjQxMNygBXXTr7f1C9xY-8" value="&lt;font style=&quot;font-size: 18px;&quot;&gt;交易&lt;/font&gt;" style="ellipse;whiteSpace=wrap;html=1;fontSize=24;" vertex="1" parent="1">
          <mxGeometry x="800" y="120" width="90" height="60" as="geometry" />
        </mxCell>
        <mxCell id="EjQxMNygBXXTr7f1C9xY-9" value="&lt;font style=&quot;font-size: 18px;&quot;&gt;交易&lt;/font&gt;" style="ellipse;whiteSpace=wrap;html=1;fontSize=24;" vertex="1" parent="1">
          <mxGeometry x="1065" y="120" width="90" height="60" as="geometry" />
        </mxCell>
        <mxCell id="EjQxMNygBXXTr7f1C9xY-11" value="&lt;b&gt;火山视频&lt;/b&gt;" style="text;html=1;strokeColor=none;fillColor=none;align=center;verticalAlign=middle;whiteSpace=wrap;rounded=0;fontSize=18;" vertex="1" parent="1">
          <mxGeometry x="790" y="80" width="110" height="30" as="geometry" />
        </mxCell>
        <mxCell id="EjQxMNygBXXTr7f1C9xY-13" value="&lt;b&gt;其他端&lt;/b&gt;" style="text;html=1;strokeColor=none;fillColor=none;align=center;verticalAlign=middle;whiteSpace=wrap;rounded=0;fontSize=18;" vertex="1" parent="1">
          <mxGeometry x="1055" y="80" width="110" height="30" as="geometry" />
        </mxCell>
        <mxCell id="EjQxMNygBXXTr7f1C9xY-14" value="&lt;b&gt;物流心智表达：当日达&amp;nbsp; &amp;nbsp; 次日达&amp;nbsp; &amp;nbsp; &amp;nbsp;小时达&amp;nbsp; &amp;nbsp; &amp;nbsp;72小时达&amp;nbsp; &amp;nbsp; &amp;nbsp;xx达&lt;/b&gt;" style="rounded=0;whiteSpace=wrap;html=1;fontSize=18;align=left;fillColor=#b1ddf0;strokeColor=#10739e;" vertex="1" parent="1">
          <mxGeometry x="90" y="300" width="1130" height="60" as="geometry" />
        </mxCell>
        <mxCell id="EjQxMNygBXXTr7f1C9xY-16" value="" style="shape=singleArrow;direction=north;whiteSpace=wrap;html=1;fontSize=18;" vertex="1" parent="1">
          <mxGeometry x="260" y="410" width="150" height="90" as="geometry" />
        </mxCell>
        <mxCell id="EjQxMNygBXXTr7f1C9xY-17" value="" style="shape=singleArrow;direction=north;whiteSpace=wrap;html=1;fontSize=18;rotation=-180;" vertex="1" parent="1">
          <mxGeometry x="850" y="400" width="150" height="110" as="geometry" />
        </mxCell>
        <mxCell id="EjQxMNygBXXTr7f1C9xY-18" value="时效&lt;br&gt;承诺" style="text;html=1;strokeColor=none;fillColor=none;align=center;verticalAlign=middle;whiteSpace=wrap;rounded=0;fontSize=18;" vertex="1" parent="1">
          <mxGeometry x="190" y="440" width="60" height="30" as="geometry" />
        </mxCell>
        <mxCell id="EjQxMNygBXXTr7f1C9xY-19" value="定仓&lt;br&gt;定容" style="text;html=1;strokeColor=none;fillColor=none;align=center;verticalAlign=middle;whiteSpace=wrap;rounded=0;fontSize=18;" vertex="1" parent="1">
          <mxGeometry x="420" y="440" width="60" height="30" as="geometry" />
        </mxCell>
        <mxCell id="EjQxMNygBXXTr7f1C9xY-20" value="订单&lt;br&gt;下发" style="text;html=1;strokeColor=none;fillColor=none;align=center;verticalAlign=middle;whiteSpace=wrap;rounded=0;fontSize=18;" vertex="1" parent="1">
          <mxGeometry x="995" y="440" width="60" height="30" as="geometry" />
        </mxCell>
        <mxCell id="EjQxMNygBXXTr7f1C9xY-21" value="&lt;font style=&quot;font-size: 24px;&quot;&gt;电商协同链路&lt;/font&gt;" style="rounded=1;whiteSpace=wrap;html=1;fontSize=18;" vertex="1" parent="1">
          <mxGeometry x="413.5" y="730" width="380" height="105" as="geometry" />
        </mxCell>
        <mxCell id="EjQxMNygBXXTr7f1C9xY-22" value="&lt;font style=&quot;font-size: 24px;&quot;&gt;供应链内部协同&lt;br&gt;（产能问题）&lt;br&gt;&lt;/font&gt;" style="rounded=1;whiteSpace=wrap;html=1;fontSize=18;" vertex="1" parent="1">
          <mxGeometry x="420" y="1120" width="380" height="105" as="geometry" />
        </mxCell>
        <mxCell id="EjQxMNygBXXTr7f1C9xY-23" value="&lt;font style=&quot;font-size: 24px;&quot;&gt;开放协同&lt;/font&gt;" style="rounded=1;whiteSpace=wrap;html=1;fontSize=18;" vertex="1" parent="1">
          <mxGeometry x="210" y="820" width="120" height="310" as="geometry" />
        </mxCell>
        <mxCell id="EjQxMNygBXXTr7f1C9xY-24" value="&lt;span style=&quot;font-size: 24px;&quot;&gt;履行网络协同&lt;br&gt;（产能问题）&lt;br&gt;&lt;/span&gt;" style="rounded=1;whiteSpace=wrap;html=1;fontSize=18;" vertex="1" parent="1">
          <mxGeometry x="875" y="810" width="195" height="310" as="geometry" />
        </mxCell>
        <mxCell id="EjQxMNygBXXTr7f1C9xY-25" value="资源的抽象刻画&lt;br&gt;货品+物流+服务" style="ellipse;whiteSpace=wrap;html=1;fontSize=24;" vertex="1" parent="1">
          <mxGeometry x="400" y="930" width="190" height="110" as="geometry" />
        </mxCell>
        <mxCell id="EjQxMNygBXXTr7f1C9xY-26" value="支付调度" style="ellipse;whiteSpace=wrap;html=1;fontSize=24;" vertex="1" parent="1">
          <mxGeometry x="660" y="930" width="160" height="110" as="geometry" />
        </mxCell>
        <mxCell id="EjQxMNygBXXTr7f1C9xY-27" value="" style="shape=flexArrow;endArrow=classic;html=1;rounded=0;fontSize=24;entryX=0;entryY=0.5;entryDx=0;entryDy=0;" edge="1" parent="1" target="EjQxMNygBXXTr7f1C9xY-26">
          <mxGeometry width="50" height="50" relative="1" as="geometry">
            <mxPoint x="600" y="985" as="sourcePoint" />
            <mxPoint x="650" y="960" as="targetPoint" />
          </mxGeometry>
        </mxCell>
        <mxCell id="EjQxMNygBXXTr7f1C9xY-28" value="&lt;b&gt;&lt;font style=&quot;font-size: 24px;&quot;&gt;供应链履约&lt;/font&gt;&lt;/b&gt;" style="text;html=1;strokeColor=none;fillColor=none;align=center;verticalAlign=middle;whiteSpace=wrap;rounded=0;fontSize=24;" vertex="1" parent="1">
          <mxGeometry x="515" y="570" width="177" height="30" as="geometry" />
        </mxCell>
        <mxCell id="EjQxMNygBXXTr7f1C9xY-29" value="&lt;b&gt;&lt;font style=&quot;font-size: 24px;&quot;&gt;协同供应链能力及社会服务，为商家提供最优履约解决方案，兑现客户承诺&lt;/font&gt;&lt;/b&gt;" style="text;html=1;strokeColor=none;fillColor=none;align=center;verticalAlign=middle;whiteSpace=wrap;rounded=0;fontSize=24;" vertex="1" parent="1">
          <mxGeometry x="230" y="630" width="811.5" height="30" as="geometry" />
        </mxCell>
        <mxCell id="EjQxMNygBXXTr7f1C9xY-31" value="国内仓培" style="rounded=1;whiteSpace=wrap;html=1;fontSize=24;" vertex="1" parent="1">
          <mxGeometry x="1280" y="540" width="300" height="125" as="geometry" />
        </mxCell>
        <mxCell id="EjQxMNygBXXTr7f1C9xY-32" value="同城仓培&lt;br&gt;（近场）" style="rounded=1;whiteSpace=wrap;html=1;fontSize=24;" vertex="1" parent="1">
          <mxGeometry x="1280" y="710" width="300" height="125" as="geometry" />
        </mxCell>
        <mxCell id="EjQxMNygBXXTr7f1C9xY-33" value="跨境仓配" style="rounded=1;whiteSpace=wrap;html=1;fontSize=24;" vertex="1" parent="1">
          <mxGeometry x="1280" y="880" width="300" height="125" as="geometry" />
        </mxCell>
        <mxCell id="EjQxMNygBXXTr7f1C9xY-34" value="快递" style="rounded=1;whiteSpace=wrap;html=1;fontSize=24;" vertex="1" parent="1">
          <mxGeometry x="1280" y="1050" width="300" height="125" as="geometry" />
        </mxCell>
        <mxCell id="EjQxMNygBXXTr7f1C9xY-35" value="同城快递" style="rounded=1;whiteSpace=wrap;html=1;fontSize=24;" vertex="1" parent="1">
          <mxGeometry x="1280" y="1225" width="300" height="125" as="geometry" />
        </mxCell>
        <mxCell id="EjQxMNygBXXTr7f1C9xY-36" value="品" style="rounded=1;whiteSpace=wrap;html=1;fontSize=24;" vertex="1" parent="1">
          <mxGeometry x="150" y="1450" width="150" height="125" as="geometry" />
        </mxCell>
        <mxCell id="EjQxMNygBXXTr7f1C9xY-37" value="商" style="rounded=1;whiteSpace=wrap;html=1;fontSize=24;" vertex="1" parent="1">
          <mxGeometry x="330" y="1450" width="150" height="125" as="geometry" />
        </mxCell>
        <mxCell id="EjQxMNygBXXTr7f1C9xY-38" value="仓" style="rounded=1;whiteSpace=wrap;html=1;fontSize=24;" vertex="1" parent="1">
          <mxGeometry x="500" y="1450" width="150" height="125" as="geometry" />
        </mxCell>
        <mxCell id="EjQxMNygBXXTr7f1C9xY-39" value="网" style="rounded=1;whiteSpace=wrap;html=1;fontSize=24;" vertex="1" parent="1">
          <mxGeometry x="677" y="1450" width="150" height="125" as="geometry" />
        </mxCell>
        <mxCell id="EjQxMNygBXXTr7f1C9xY-40" value="库存" style="rounded=1;whiteSpace=wrap;html=1;fontSize=24;" vertex="1" parent="1">
          <mxGeometry x="860" y="1450" width="150" height="125" as="geometry" />
        </mxCell>
        <mxCell id="EjQxMNygBXXTr7f1C9xY-41" value="服务" style="rounded=1;whiteSpace=wrap;html=1;fontSize=24;" vertex="1" parent="1">
          <mxGeometry x="1050" y="1450" width="150" height="125" as="geometry" />
        </mxCell>
        <mxCell id="EjQxMNygBXXTr7f1C9xY-42" value="电商交易端" style="rounded=0;whiteSpace=wrap;html=1;fontSize=24;fillColor=#d0cee2;strokeColor=#56517e;" vertex="1" parent="1">
          <mxGeometry x="100" y="-50" width="210" height="60" as="geometry" />
        </mxCell>
      </root>
    </mxGraphModel>
  </diagram>
  <diagram id="2WJJvC3nFUNYFOB-ikwR" name="第 5 页">
    <mxGraphModel dx="1123" dy="663" grid="1" gridSize="10" guides="1" tooltips="1" connect="1" arrows="1" fold="1" page="1" pageScale="1" pageWidth="827" pageHeight="1169" math="0" shadow="0">
      <root>
        <mxCell id="0" />
        <mxCell id="1" parent="0" />
        <mxCell id="vfROzsCgHoOLcE8lySx9-1" value="供应链" style="rounded=1;whiteSpace=wrap;html=1;fontSize=24;" vertex="1" parent="1">
          <mxGeometry x="210" y="230" width="150" height="60" as="geometry" />
        </mxCell>
        <mxCell id="vfROzsCgHoOLcE8lySx9-3" value="&lt;font style=&quot;font-size: 20px;&quot;&gt;匹配营销阵地&lt;/font&gt;" style="html=1;shadow=0;dashed=0;align=center;verticalAlign=middle;shape=mxgraph.arrows2.arrow;dy=0.6;dx=40;notch=0;fontSize=24;" vertex="1" parent="1">
          <mxGeometry x="390" y="220" width="180" height="70" as="geometry" />
        </mxCell>
        <mxCell id="vfROzsCgHoOLcE8lySx9-6" style="edgeStyle=orthogonalEdgeStyle;rounded=0;orthogonalLoop=1;jettySize=auto;html=1;entryX=0.451;entryY=1.083;entryDx=0;entryDy=0;entryPerimeter=0;fontSize=20;" edge="1" parent="1" source="vfROzsCgHoOLcE8lySx9-4" target="vfROzsCgHoOLcE8lySx9-1">
          <mxGeometry relative="1" as="geometry">
            <Array as="points">
              <mxPoint x="675" y="370" />
              <mxPoint x="278" y="370" />
            </Array>
          </mxGeometry>
        </mxCell>
        <mxCell id="vfROzsCgHoOLcE8lySx9-16" value="协同商家" style="rounded=0;orthogonalLoop=1;jettySize=auto;html=1;entryX=0.5;entryY=1;entryDx=0;entryDy=0;fontSize=20;" edge="1" parent="1" source="vfROzsCgHoOLcE8lySx9-4" target="vfROzsCgHoOLcE8lySx9-9">
          <mxGeometry relative="1" as="geometry" />
        </mxCell>
        <mxCell id="vfROzsCgHoOLcE8lySx9-17" value="规划商品" style="edgeStyle=none;rounded=0;orthogonalLoop=1;jettySize=auto;html=1;entryX=0.5;entryY=0;entryDx=0;entryDy=0;fontSize=20;" edge="1" parent="1" source="vfROzsCgHoOLcE8lySx9-4" target="vfROzsCgHoOLcE8lySx9-10">
          <mxGeometry relative="1" as="geometry" />
        </mxCell>
        <mxCell id="vfROzsCgHoOLcE8lySx9-4" value="用户需求" style="rounded=1;whiteSpace=wrap;html=1;fontSize=24;" vertex="1" parent="1">
          <mxGeometry x="600" y="230" width="150" height="60" as="geometry" />
        </mxCell>
        <mxCell id="vfROzsCgHoOLcE8lySx9-5" value="" style="endArrow=classic;html=1;rounded=0;fontSize=20;entryX=0.5;entryY=0;entryDx=0;entryDy=0;exitX=0.5;exitY=0;exitDx=0;exitDy=0;edgeStyle=orthogonalEdgeStyle;" edge="1" parent="1" source="vfROzsCgHoOLcE8lySx9-4" target="vfROzsCgHoOLcE8lySx9-1">
          <mxGeometry width="50" height="50" relative="1" as="geometry">
            <mxPoint x="680" y="210" as="sourcePoint" />
            <mxPoint x="520" y="160" as="targetPoint" />
            <Array as="points">
              <mxPoint x="675" y="150" />
              <mxPoint x="285" y="150" />
            </Array>
          </mxGeometry>
        </mxCell>
        <mxCell id="vfROzsCgHoOLcE8lySx9-11" style="edgeStyle=orthogonalEdgeStyle;rounded=0;orthogonalLoop=1;jettySize=auto;html=1;entryX=1;entryY=0.5;entryDx=0;entryDy=0;fontSize=20;" edge="1" parent="1" source="vfROzsCgHoOLcE8lySx9-7" target="vfROzsCgHoOLcE8lySx9-9">
          <mxGeometry relative="1" as="geometry">
            <Array as="points">
              <mxPoint x="830" y="90" />
            </Array>
          </mxGeometry>
        </mxCell>
        <mxCell id="vfROzsCgHoOLcE8lySx9-15" style="edgeStyle=orthogonalEdgeStyle;rounded=0;orthogonalLoop=1;jettySize=auto;html=1;entryX=1;entryY=0.5;entryDx=0;entryDy=0;fontSize=20;" edge="1" parent="1" source="vfROzsCgHoOLcE8lySx9-7" target="vfROzsCgHoOLcE8lySx9-10">
          <mxGeometry relative="1" as="geometry">
            <Array as="points">
              <mxPoint x="835" y="430" />
            </Array>
          </mxGeometry>
        </mxCell>
        <mxCell id="vfROzsCgHoOLcE8lySx9-7" value="" style="shape=actor;whiteSpace=wrap;html=1;fontSize=20;" vertex="1" parent="1">
          <mxGeometry x="810" y="230" width="50" height="60" as="geometry" />
        </mxCell>
        <mxCell id="vfROzsCgHoOLcE8lySx9-13" style="edgeStyle=orthogonalEdgeStyle;rounded=0;orthogonalLoop=1;jettySize=auto;html=1;entryX=0;entryY=0.5;entryDx=0;entryDy=0;fontSize=20;" edge="1" parent="1" source="vfROzsCgHoOLcE8lySx9-8" target="vfROzsCgHoOLcE8lySx9-10">
          <mxGeometry relative="1" as="geometry">
            <Array as="points">
              <mxPoint x="125" y="430" />
            </Array>
          </mxGeometry>
        </mxCell>
        <mxCell id="vfROzsCgHoOLcE8lySx9-8" value="仓库" style="rounded=1;whiteSpace=wrap;html=1;fontSize=24;" vertex="1" parent="1">
          <mxGeometry x="80" y="230" width="90" height="60" as="geometry" />
        </mxCell>
        <mxCell id="vfROzsCgHoOLcE8lySx9-12" style="edgeStyle=orthogonalEdgeStyle;rounded=0;orthogonalLoop=1;jettySize=auto;html=1;entryX=0.5;entryY=0;entryDx=0;entryDy=0;fontSize=20;" edge="1" parent="1" source="vfROzsCgHoOLcE8lySx9-9" target="vfROzsCgHoOLcE8lySx9-8">
          <mxGeometry relative="1" as="geometry" />
        </mxCell>
        <mxCell id="vfROzsCgHoOLcE8lySx9-9" value="商家" style="rounded=1;whiteSpace=wrap;html=1;fontSize=24;" vertex="1" parent="1">
          <mxGeometry x="460" y="60" width="90" height="60" as="geometry" />
        </mxCell>
        <mxCell id="vfROzsCgHoOLcE8lySx9-10" value="商品" style="rounded=1;whiteSpace=wrap;html=1;fontSize=24;" vertex="1" parent="1">
          <mxGeometry x="460" y="400" width="90" height="60" as="geometry" />
        </mxCell>
        <mxCell id="vfROzsCgHoOLcE8lySx9-18" value="电商供应链：供给 渠道&amp;amp;实物履约" style="rounded=0;whiteSpace=wrap;html=1;fontSize=20;fillColor=#b1ddf0;strokeColor=#10739e;" vertex="1" parent="1">
          <mxGeometry x="1010" y="80" width="440" height="80" as="geometry" />
        </mxCell>
        <mxCell id="vfROzsCgHoOLcE8lySx9-20" value="匹配人货场精准营销" style="rounded=0;whiteSpace=wrap;html=1;fontSize=20;fillColor=#f0a30a;fontColor=#000000;strokeColor=#BD7000;" vertex="1" parent="1">
          <mxGeometry x="1000" y="380" width="440" height="80" as="geometry" />
        </mxCell>
        <mxCell id="vfROzsCgHoOLcE8lySx9-21" value="物流&lt;br&gt;改善" style="ellipse;whiteSpace=wrap;html=1;fontSize=20;fillColor=#e51400;fontColor=#ffffff;strokeColor=#B20000;" vertex="1" parent="1">
          <mxGeometry x="1010" y="235" width="100" height="80" as="geometry" />
        </mxCell>
        <mxCell id="vfROzsCgHoOLcE8lySx9-22" value="平台&lt;br&gt;增长" style="ellipse;whiteSpace=wrap;html=1;fontSize=20;fillColor=#e51400;fontColor=#ffffff;strokeColor=#B20000;" vertex="1" parent="1">
          <mxGeometry x="1181" y="230" width="100" height="80" as="geometry" />
        </mxCell>
        <mxCell id="vfROzsCgHoOLcE8lySx9-23" value="NPS&lt;br&gt;提高" style="ellipse;whiteSpace=wrap;html=1;fontSize=20;fillColor=#e51400;fontColor=#ffffff;strokeColor=#B20000;" vertex="1" parent="1">
          <mxGeometry x="1340" y="230" width="100" height="80" as="geometry" />
        </mxCell>
        <mxCell id="vfROzsCgHoOLcE8lySx9-24" value="" style="html=1;shadow=0;dashed=0;align=center;verticalAlign=middle;shape=mxgraph.arrows2.arrow;dy=0.6;dx=40;direction=south;notch=0;fontSize=20;" vertex="1" parent="1">
          <mxGeometry x="1195" y="160" width="70" height="70" as="geometry" />
        </mxCell>
        <mxCell id="vfROzsCgHoOLcE8lySx9-25" value="" style="html=1;shadow=0;dashed=0;align=center;verticalAlign=middle;shape=mxgraph.arrows2.arrow;dy=0.6;dx=40;direction=north;notch=0;fontSize=20;" vertex="1" parent="1">
          <mxGeometry x="1195" y="310" width="70" height="70" as="geometry" />
        </mxCell>
      </root>
    </mxGraphModel>
  </diagram>
</mxfile>
